<?xml version="1.0" encoding="utf-8"?>
<!-- Generator: Adobe Illustrator 19.0.0, SVG Export Plug-In . SVG Version: 6.00 Build 0)  -->
<svg version="1.1" id="Layer_1" xmlns="http://www.w3.org/2000/svg" xmlns:xlink="http://www.w3.org/1999/xlink" x="0px" y="0px"
	 viewBox="0 0 1600 1533.9" style="enable-background:new 0 0 1600 1533.9;" xml:space="preserve">
<style type="text/css">
	.st0{fill:#F4F4F4;}
	.st1{fill:#FFFFFF;}
	.st2{fill:none;}
</style>
<rect x="0" class="st0" width="1600" height="1533.9"/>
<path class="st1" d="M1639.9,632.1c-26.6-17.3-60.6-22.9-91.4-14.9c-30.8,8-57.8,29.3-72.6,57.4c-9.4,17.7-14,38.5-9.7,58.1
	c6.3,28.7,29.9,49.8,45.9,74.4c-24.5-5.8-50.1-7-75-3.4c-14.7,2.1-30.1,6.5-39.7,17.8s-10,31.2,2.5,39.1
	c-35.2-2.3-75.4-2.8-99.8,22.7c-6.8,7.1-12,16.3-11.9,26.2c0,14.3,11.2,26.7,24.3,32.5s27.8,6.5,42.1,7.1
	c112.7,4.4,225.4,8.8,338.1,13.1"/>
<path class="st1" d="M1275.2,636.4c5.5-1.2,11.3-1.2,16.9-0.2c3.6,0.7,7.2,1.9,9.8,4.5c2.6,2.6,3.9,6.7,2.3,10
	c-1.4,2.8-4.4,4.3-7.4,5.2c-7.4,2.3-24.7,4.3-31-2.3C1258,645.4,1266,638.3,1275.2,636.4z"/>
<path class="st1" d="M457.9,1038.8c4.8-1,9.7-1.1,14.5-0.1c3.1,0.6,6.2,1.6,8.4,3.8s3.3,5.8,1.9,8.6c-1.2,2.4-3.8,3.7-6.4,4.5
	c-6.4,2-21.2,3.7-26.6-2C443.2,1046.5,450,1040.4,457.9,1038.8z"/>
<path class="st1" d="M636.2,681.3c4.8-1,9.7-1.1,14.5-0.1c3.1,0.6,6.2,1.6,8.4,3.8s3.3,5.8,1.9,8.6c-1.2,2.4-3.8,3.7-6.4,4.5
	c-6.4,2-21.2,3.7-26.6-2C621.5,689.1,628.4,683,636.2,681.3z"/>
<path class="st1" d="M1041.2,1100.1c4.8-1,9.7-1.1,14.5-0.1c3.1,0.6,6.2,1.6,8.4,3.8s3.3,5.8,1.9,8.6c-1.2,2.4-3.8,3.7-6.4,4.5
	c-6.4,2-21.2,3.7-26.6-2C1026.5,1107.9,1033.4,1101.7,1041.2,1100.1z"/>
<path class="st2" d="M823.8,941.2c0-3.6,0-7.1,0-10.7v11.4C823.8,941.6,823.8,941.4,823.8,941.2z"/>
<path d="M823.8,944.5v-2.6C823.7,942.7,823.7,943.7,823.8,944.5z"/>
<circle class="st1" cx="625.5" cy="1083.7" r="2.5"/>
<circle class="st1" cx="428.4" cy="1028.5" r="2.5"/>
<circle class="st1" cx="1074.1" cy="1078.2" r="2.5"/>
<circle class="st1" cx="621.7" cy="709.2" r="2.5"/>
<circle class="st1" cx="684.3" cy="744.1" r="2.5"/>
<circle class="st1" cx="1304.8" cy="576" r="2.5"/>
<circle class="st1" cx="1056.6" cy="669.1" r="2.5"/>
<circle class="st1" cx="1125.1" cy="591.5" r="2.5"/>
<circle class="st1" cx="1093.1" cy="275.1" r="2.5"/>
<circle class="st1" cx="992.8" cy="312.5" r="2.5"/>
<circle class="st1" cx="702.6" cy="275.9" r="2.5"/>
<path id="XMLID_43_" class="st1" d="M-0.3,389.1c18.6-12.1,42.4-16,63.8-10.4c21.5,5.6,40.4,20.5,50.8,40.1
	c6.5,12.4,9.8,26.9,6.8,40.6c-4.4,20-20.9,34.8-32.1,52c17.1-4.1,35-4.9,52.4-2.3c10.3,1.5,21,4.5,27.7,12.4s7,21.8-1.8,27.3
	c24.6-1.6,52.7-1.9,69.8,15.9c4.8,5,8.4,11.4,8.3,18.3c0,10-7.8,18.6-17,22.7c-9.1,4.1-19.4,4.5-29.4,4.9
	c-78.7,3.1-157.5,6.1-236.2,9.2"/>
<path id="XMLID_41_" class="st1" d="M-113.4,1362.1c3.3-23.4,17.9-44.1,36.7-58.5s41.3-22.9,64.1-28.9c22.3-5.8,45.6-9.4,68.3-5.7
	c27.7,4.5,53.4,20.3,70,42.9s24,51.9,20,79.7c20-25.7,56.7-38,87.5-27.2c30.8,10.8,52,45.3,45.4,77.2c32-20.5,68.9-33.4,106.8-36.4
	c17.8-1.4,36-0.6,52.9,4.9c27.5,8.9,49.8,29.6,67.8,52.3c21.9,27.5,39.5,59.9,42.4,94.9c-88.3,2.1-176.6,4.1-264.9,6.2
	c-50.5,1.2-101,2.3-151.4-0.6c-68.7-4-136.8-15.6-204.7-27.2c-5.2-0.9-10.6-1.9-14.8-5c-4.8-3.6-7.4-9.3-9.6-14.9
	c-13.8-34.5-23.1-70.9-27.4-107.9"/>
<path id="XMLID_42_" class="st1" d="M540,262.2c5.5-1.2,11.3-1.2,16.9-0.2c3.6,0.7,7.2,1.9,9.8,4.5c2.6,2.6,3.9,6.7,2.3,10
	c-1.4,2.8-4.4,4.3-7.4,5.2c-7.4,2.3-24.7,4.3-31-2.3C522.9,271.2,530.9,264.1,540,262.2z"/>
</svg>