<?xml version="1.0" encoding="utf-8"?>
<!-- Generator: Adobe Illustrator 21.1.0, SVG Export Plug-In . SVG Version: 6.00 Build 0)  -->
<svg version="1.1" id="Layer_1" xmlns="http://www.w3.org/2000/svg" xmlns:xlink="http://www.w3.org/1999/xlink" x="0px" y="0px"
	 viewBox="0 0 131 67" style="enable-background:new 0 0 131 67;" xml:space="preserve">
<style type="text/css">
	.st0{fill:#F95E08;}
</style>
<g>
	<path class="st0" d="M48.1,59.7c-3-1.2-3.8-2.3-3.8-5.6c0-3.8,0-7.6,0-11.4c0-0.4,0-0.8,0-1.4c-1.2,0-2.3,0-3.3,0
		c-1.2,0-1.6-0.6-1-1.6c1.4-2.9,2.9-5.7,4.3-8.5c0.3-0.7,0.8-0.8,1.5-0.8c3.5,0,6.9,0,10.6,0c0-0.4,0-0.8,0-1.1c0-2.1,0-4.1,0-6.2
		c0-2.6,1.8-4.5,4.4-4.6c3.2-0.1,6.4-0.1,9.6,0c2.6,0.1,4.4,2,4.4,4.7c0,2.4,0,4.7,0,7.2c1.4,0,2.7,0,4,0c2.2,0,4.4,0,6.6,0
		c0.5,0,1.1,0.4,1.3,0.8c1.5,2.8,2.9,5.7,4.3,8.6c0.5,0.9,0.1,1.5-1,1.5c-1.1,0-2.2,0-3.5,0c0,0.5,0,0.9,0,1.3c0,3.8,0,7.7,0,11.5
		c0,3.3-0.7,4.4-3.8,5.6C71.3,59.7,59.7,59.7,48.1,59.7z M73.7,57.9c0-7.5,0-14.9,0-22.6c-0.9,1.8-1.7,3.2-2.3,4.7
		c-0.4,1-1.1,1.4-2.2,1.4c-7.2-0.1-14.4,0-21.7,0c-0.4,0-0.8,0-1.4,0c0,0.9,0,1.7,0,2.6c0,3.6,0,7.2,0,10.8c0,1.7,0.8,3,2.2,3.1
		c2.3,0.1,4.6,0,7,0c0-3.2,0-6.4,0-9.5c0-1.4,0.6-1.8,1.8-1.1c0.7,0.4,1.2,0.4,1.9,0c0.4-0.2,1.2-0.3,1.6-0.1c0.8,0.4,1.5,0.4,2.3,0
		c1.1-0.6,1.6-0.2,1.6,1c0,2.6,0,5.2,0,7.8c0,0.6,0,1.2,0,1.9C67.6,57.9,70.6,57.9,73.7,57.9z M73.2,32.1c-0.7,0-1.1,0-1.5,0
		c-7.5,0-14.9,0.1-22.4-0.1c-2.7-0.1-4.3,0.6-5.2,3.2c-0.5,1.4-1.3,2.8-2.1,4.3c2.2,0,4.1,0,6,0c6.8,0,13.6,0,20.4,0
		c0.4,0,1-0.1,1.2-0.4C70.9,36.8,72,34.6,73.2,32.1z M84.8,41.3c-1.7,0-3.2,0-4.8,0c-0.9,0-1.4-0.3-1.8-1.1
		c-0.7-1.6-1.6-3.1-2.4-4.9c0,7.7,0,15.1,0,22.6c2,0,3.9,0,5.8,0c2.3,0,3.3-1,3.3-3.4c0-4,0-8.1,0-12.1
		C84.8,42.1,84.8,41.7,84.8,41.3z M72.8,30.3c0-2.4,0-4.6,0-6.9c0-0.2,0-0.5,0-0.7c-0.1-1.4-1.2-2.5-2.7-2.6c-3.1,0-6.2,0-9.3,0
		c-1.3,0-2.6,1-2.6,2.2c-0.1,2.6,0,5.3,0,7.9c1.2,0,2.4,0,3.4,0c-0.2-0.8-0.5-1.6-0.6-2.4c-0.1-0.8,0.2-1.2,1.1-1.2
		c2.3,0,4.6,0,6.9,0c0.9,0,1.2,0.5,1.1,1.2c-0.1,0.8-0.4,1.6-0.7,2.4C70.5,30.3,71.6,30.3,72.8,30.3z M88.8,39.5
		c-1.2-2.4-2.3-4.7-3.5-7c-0.1-0.2-0.4-0.4-0.6-0.4c-2.8,0-5.6,0-8.6,0c1.2,2.5,2.4,4.8,3.5,7c0.1,0.2,0.4,0.4,0.6,0.4
		C83.1,39.5,85.9,39.5,88.8,39.5z M62.7,57.9c0-2.9,0-5.7,0-8.1c-1.7-0.9-3.4-0.7-5.1-0.3c-0.1,0-0.2,0-0.3-0.1c0,2.8,0,5.6,0,8.5
		C59.1,57.9,60.9,57.9,62.7,57.9z M62.9,28.5c0.6,1.2,1.4,1.8,2.6,1.8c1.1,0,2-0.5,2.5-1.8C66.3,28.5,64.7,28.5,62.9,28.5z"/>
	<path class="st0" d="M66.3,7.3c0,0.6,0,1.1,0,1.8c-0.5,0-1,0-1.6,0c0-0.6,0-1.2,0-1.8C65.2,7.3,65.7,7.3,66.3,7.3z"/>
	<path class="st0" d="M52.5,20.1c-0.4,0-0.7,0-1,0c-0.2,0-0.4,0-0.7-0.1c-1.6-6.9-4.2-9.5-10.1-10.1c0-0.5,0-1.1,0-1.7
		C45.9,7.8,52.5,12.7,52.5,20.1z"/>
	<path class="st0" d="M80.1,20.1c-0.3,0-0.6,0-0.9,0c-0.2,0-0.5,0-0.7,0C77.9,14.9,83.1,8,90.3,8.3c0,0.5,0,1.1,0,1.6
		C84.2,10.6,80.8,13.9,80.1,20.1z"/>
	<path class="st0" d="M39.8,21c0-0.6,0-1.1,0-1.6c4.9-0.2,9.4,4.3,9,9c-0.5,0-1,0-1.6,0C46.6,24,44.2,21.5,39.8,21z"/>
	<path class="st0" d="M91.2,19.3c0,0.6,0,1.1,0,1.6c-4.4,0.5-6.9,3-7.4,7.4c-0.5,0-1,0-1.5,0C81.2,24.4,86,19.4,91.2,19.3z"/>
	<path class="st0" d="M76.5,8.2c0,0.6,0,1.1,0,1.7c-4.2,0.9-5.9,2.6-6.5,6.4c-0.2,0-0.5,0.1-0.8,0.1c-0.3,0-0.5,0-0.8,0
		C67.8,12.5,71.9,8.2,76.5,8.2z"/>
	<path class="st0" d="M54.5,9.9c0-0.6,0-1.1,0-1.6c4.7-0.5,8.4,4.2,8.2,8c-0.5,0-1,0-1.6,0C60.5,12.6,58.4,10.4,54.5,9.9z"/>
	<path class="st0" d="M52.5,23.8c-0.6,0-1.1,0-1.7,0c0-0.6,0-1.1,0-1.7c0.6,0,1.1,0,1.7,0C52.5,22.6,52.5,23.1,52.5,23.8z"/>
	<path class="st0" d="M78.5,22c0.6,0,1.1,0,1.6,0c0,0.6,0,1.1,0,1.7c-0.5,0-1,0-1.6,0C78.5,23.2,78.5,22.7,78.5,22z"/>
	<path class="st0" d="M52.5,25.8c0,0.6,0,1.1,0,1.7c-0.6,0-1.1,0-1.7,0c0-0.6,0-1.1,0-1.7C51.4,25.8,51.9,25.8,52.5,25.8z"/>
	<path class="st0" d="M78.5,25.7c0.6,0,1.1,0,1.6,0c0,0.6,0,1.2,0,1.8c-0.6,0-1.1,0-1.6,0C78.5,26.9,78.5,26.4,78.5,25.7z"/>
	<path class="st0" d="M52.5,10c-0.6,0-1,0-1.6,0c0-0.6,0-1.1,0-1.7c0.5,0,1.1,0,1.6,0C52.5,8.8,52.5,9.3,52.5,10z"/>
	<path class="st0" d="M78.4,10c0-0.6,0-1.1,0-1.7c0.6,0,1.1,0,1.7,0c0,0.6,0,1.1,0,1.7C79.6,10,79.1,10,78.4,10z"/>
	<path class="st0" d="M73.8,14.7c0.6,0,1.1,0,1.7,0c0,0.5,0,1,0,1.6c-0.5,0-1.1,0-1.7,0C73.8,15.8,73.8,15.3,73.8,14.7z"/>
	<path class="st0" d="M55.4,16.3c0-0.6,0-1,0-1.6c0.6,0,1.1,0,1.7,0c0,0.5,0,1,0,1.6C56.6,16.3,56,16.3,55.4,16.3z"/>
	<path class="st0" d="M66.3,12.7c-0.6,0-1.1,0-1.6,0c0-0.6,0-1,0-1.6c0.5,0,1,0,1.6,0C66.3,11.6,66.3,12.1,66.3,12.7z"/>
	<path class="st0" d="M64.7,14.7c0.5,0,1,0,1.6,0c0,0.5,0,1.1,0,1.6c-0.5,0-1,0-1.6,0C64.7,15.8,64.7,15.4,64.7,14.7z"/>
	<path class="st0" d="M64.3,22.9c0,0.6,0,1.1,0,1.7c-0.6,0-1.1,0-1.7,0c0-0.6,0-1.1,0-1.7C63.1,22.9,63.7,22.9,64.3,22.9z"/>
	<path class="st0" d="M66.3,22.9c0.6,0,1.1,0,1.7,0c0,0.6,0,1.1,0,1.7c-0.6,0-1.1,0-1.7,0C66.3,24,66.3,23.5,66.3,22.9z"/>
</g>
</svg>
