<?xml version="1.0" encoding="utf-8"?>
<!-- Generator: Adobe Illustrator 21.1.0, SVG Export Plug-In . SVG Version: 6.00 Build 0)  -->
<svg version="1.1" id="Layer_1" xmlns="http://www.w3.org/2000/svg" xmlns:xlink="http://www.w3.org/1999/xlink" x="0px" y="0px"
	 viewBox="0 0 210 190" style="enable-background:new 0 0 210 190;" xml:space="preserve">
<style type="text/css">
	.st0{fill:#FFFFFF;}
	.st1{clip-path:url(#SVGID_2_);}
	.st2{fill:#E8E8E8;}
	.st3{fill:#FFFFFF;stroke:#FCFCFC;stroke-width:4.5002;stroke-miterlimit:10;}
	.st4{fill:#353535;}
	.st5{fill:#F95E08;}
</style>
<g>
	<path class="st0" d="M26.2,109.2c-6.6-6.8-8.1-17.6-4.9-26.6s10.5-16,18.9-20.5s17.8-6.6,27.2-8c22.4-3.3,45.5-2.3,67.6,2.8
		c14,3.2,28,8.3,39.1,17.4c9.8,8,17.1,18.9,20.7,31c2.4,8.1,3.1,17.5-1.7,24.6c-4,6-11.1,9.1-17.9,11.3c-40.8,13.3-85.3,6-127.3-2.9
		c-7.2-1.5-14.7-3.2-20.6-7.6c-5.8-4.3-9.6-11-11.9-17.8c-2.2-6.4-3.2-13.3-1.9-19.9c1.4-6.6,5.4-12.9,11.4-15.9"/>
	<g>
		<defs>
			<circle id="SVGID_1_" cx="99.5" cy="79.6" r="48.2"/>
		</defs>
		<clipPath id="SVGID_2_">
			<use xlink:href="#SVGID_1_"  style="overflow:visible;"/>
		</clipPath>
		<g class="st1">
			
				<rect x="54.8" y="-15" transform="matrix(0.6433 0.7656 -0.7656 0.6433 56.1978 -26.6494)" class="st2" width="3.7" height="124"/>
			
				<rect x="61.1" y="-10.1" transform="matrix(0.6433 0.7656 -0.7656 0.6433 62.1954 -29.6549)" class="st2" width="3.7" height="124"/>
			
				<rect x="67.5" y="-4.9" transform="matrix(0.6433 0.7656 -0.7656 0.6433 68.4851 -32.739)" class="st2" width="3.7" height="124"/>
			
				<rect x="74.1" y="0.4" transform="matrix(0.6433 0.7656 -0.7656 0.6433 74.872 -35.8493)" class="st2" width="3.7" height="124"/>
			
				<rect x="80.5" y="5.6" transform="matrix(0.6433 0.7656 -0.7656 0.6433 81.1616 -38.9333)" class="st2" width="3.7" height="124"/>
			
				<rect x="87" y="10.8" transform="matrix(0.6433 0.7656 -0.7656 0.6433 87.4512 -42.0174)" class="st2" width="3.7" height="124"/>
			
				<rect x="93.2" y="15.8" transform="matrix(0.6433 0.7656 -0.7656 0.6433 93.4488 -45.0229)" class="st2" width="3.7" height="124"/>
			
				<rect x="99.4" y="20.7" transform="matrix(0.6433 0.7656 -0.7656 0.6433 99.4465 -48.0285)" class="st2" width="3.7" height="124"/>
			
				<rect x="105.6" y="25.6" transform="matrix(0.6433 0.7656 -0.7656 0.6433 105.4442 -51.034)" class="st2" width="3.7" height="124"/>
			
				<rect x="112.1" y="30.8" transform="matrix(0.6433 0.7656 -0.7656 0.6433 111.7338 -54.1181)" class="st2" width="3.7" height="124"/>
			
				<rect x="118.6" y="36.1" transform="matrix(0.6433 0.7656 -0.7656 0.6433 118.1207 -57.2284)" class="st2" width="3.7" height="124"/>
			
				<rect x="125.1" y="41.3" transform="matrix(0.6433 0.7656 -0.7656 0.6433 124.4103 -60.3124)" class="st2" width="3.7" height="124"/>
			
				<rect x="131.5" y="46.5" transform="matrix(0.6433 0.7656 -0.7656 0.6433 130.6999 -63.3965)" class="st2" width="3.7" height="124"/>
			
				<rect x="137.8" y="51.5" transform="matrix(0.6433 0.7656 -0.7656 0.6433 136.6975 -66.402)" class="st2" width="3.7" height="124"/>
		</g>
	</g>
	<path class="st3" d="M67.7,44.4c3.9,2.3,7.7,4.7,11.6,6.9c1.4,0.8,2.1,1.6,1.5,3.3c-0.6,2,0,3.5,1.6,5.1c9.4,9.2,18.7,18.6,28,27.9
		c0.5,0.5,0.8,1.2,1.3,1.9c2.4-1.9,3.9-4.9,7.1-2.8c2.6,1.7,3,3.2,1.8,6.2c1.2,1.1,2.5,2.3,3.8,3.5c0.4,0.3,1,0.4,1.5,0.4
		c2.3-0.2,4.1,0.6,5.6,2.2c6.1,6.2,12.3,12.3,18.4,18.6c3.7,3.8,3.6,9.5-0.2,13.5c-3.9,4.1-9.9,4.6-13.8,0.9
		c-6.6-6.3-13-12.8-19.4-19.3c-0.7-0.7-1.4-1.8-1.3-2.6c0.3-3.4-1.9-5.2-4.1-7.1c-3.1,1.1-4.5,0.8-6.4-2.1c-2.3-3.5,1.3-4.9,3.2-7.5
		c-0.6-0.4-1.3-0.7-1.8-1.2c-9.3-9.3-18.6-18.5-27.8-27.9c-1.7-1.7-3.3-2.4-5.5-1.7c-1.6,0.5-2.3-0.1-3-1.4c-2.3-4-4.7-7.9-7-11.8
		c0-0.1,0-0.3,0-0.4c1.5-1.5,3-3,4.5-4.5C67.4,44.4,67.6,44.4,67.7,44.4z M145.7,125.1c-0.3-0.4-0.7-1.1-1.3-1.7
		c-6.2-6.3-12.5-12.5-18.7-18.8c-0.4-0.4-0.8-0.9-1.2-1c-0.7-0.1-1.7-0.1-2.1,0.3c-0.4,0.4-0.2,1.4-0.2,2.1c0,0.3,0.5,0.6,0.8,0.9
		c6.3,6.3,12.7,12.7,19,19c0.3,0.3,0.7,0.7,1.1,0.9C144.2,127.6,145.6,126.9,145.7,125.1z"/>
	<path class="st4" d="M71.2,44c3.8,2.2,7.5,4.5,11.3,6.7c1.4,0.8,2,1.6,1.5,3.2c-0.6,1.9,0,3.4,1.5,5c9.2,9,18.2,18.1,27.3,27.2
		c0.5,0.5,0.8,1.2,1.2,1.8c2.4-1.8,3.8-4.8,6.9-2.8c2.5,1.6,2.9,3.1,1.8,6c1.2,1.1,2.4,2.3,3.7,3.4c0.3,0.3,1,0.4,1.4,0.4
		c2.2-0.2,4,0.6,5.5,2.1c6,6,12,12,17.9,18.1c3.6,3.7,3.5,9.3-0.2,13.1c-3.8,4-9.7,4.5-13.5,0.9c-6.4-6.2-12.6-12.5-18.9-18.8
		c-0.7-0.7-1.3-1.7-1.3-2.6c0.3-3.3-1.9-5.1-4-6.9c-3,1.1-4.4,0.8-6.2-2c-2.3-3.4,1.3-4.8,3.1-7.3c-0.6-0.4-1.3-0.7-1.8-1.2
		c-9.1-9-18.1-18-27.1-27.1c-1.6-1.7-3.2-2.4-5.3-1.6c-1.5,0.5-2.2-0.1-2.9-1.4c-2.2-3.9-4.5-7.7-6.8-11.5c0-0.1,0-0.3,0-0.4
		c1.4-1.4,2.9-2.9,4.3-4.3C71,44,71.1,44,71.2,44z M147.2,122.6c-0.3-0.4-0.7-1.1-1.3-1.6c-6.1-6.1-12.2-12.2-18.3-18.3
		c-0.4-0.4-0.8-0.9-1.2-1c-0.7-0.1-1.7-0.1-2.1,0.3c-0.4,0.4-0.2,1.4-0.1,2.1c0,0.3,0.5,0.6,0.8,0.9c6.2,6.2,12.4,12.4,18.5,18.5
		c0.3,0.3,0.6,0.7,1,0.9C145.7,125.1,147.1,124.4,147.2,122.6z"/>
	<path class="st5" d="M136.8,44c0.6,0.2,1.2,0.4,2.1,0.6c-0.4,0.5-0.7,0.9-1.1,1.3c-2.7,2.7-5.4,5.4-8.1,8.1
		c-1.8,1.9-1.9,3.6-0.1,5.5c3,3.1,6,6.1,9.1,9.1c2,2,3.6,1.8,5.6-0.1c3.1-2.9,6.2-5.7,9.3-8.5c0,1.5,0.3,3.5-0.1,5.5
		c-0.9,5.2-3.1,9.9-6.6,13.9c-4.3,4.9-9,6-15.1,3.7c-1.1-0.4-2.4-1.5-3.4-1.3c-1,0.2-1.9,1.5-2.6,2.2c-1.9-1-3.6-2.4-5.5-2.8
		c-1.8-0.3-3.9,0.4-6.4,0.8c-1.1-1.2-2.7-3-4.3-4.8c2.4-2.3,4.8-4.6,6.8-6.6c-1.1-3.1-2.2-5.6-2.8-8.3c-1-4.4,0.5-8.2,3.9-11.1
		c4.4-3.7,9.5-6.1,15.2-6.9c0.2,0,0.5-0.2,0.7-0.3C134.7,44,135.8,44,136.8,44z"/>
	<path class="st5" d="M66.5,112.4c0.9-3.1,1.8-6.1,4-8.6c4-4.4,9-6.3,14.8-5.7c1.5,0.2,2.6-0.2,3.6-1.3c3.4-3.6,6.9-7,10.3-10.4
		c1.9,1.9,3.7,3.6,5.6,5.6c-2.5,3.7-1.7,7.2,1.9,10.7c-2.1,1.9-4,3.8-6,5.6c-1.1,0.9-1.3,1.9-1,3.2c1.5,7.6-2.2,15.1-9.1,18.3
		c-7,3.3-15.5,1.5-20.4-4.4c-2.1-2.6-3.1-5.6-3.8-8.7C66.5,115.3,66.5,113.8,66.5,112.4z M74.6,116.8c0.2,0.3,0.4,0.8,0.8,1.2
		c1.9,1.8,3.5,4.5,5.7,5.2c2,0.6,4.7-1,7.1-1.6c0.1,0,0.3,0,0.4-0.1c0.5-0.4,1.2-0.8,1.4-1.4c0.7-2.2,1.2-4.4,1.7-6.7
		c0.1-0.5-0.1-1.3-0.4-1.7c-5.3-6-5.3-6-13-3.8c-0.3,0.1-0.5,0.1-0.8,0.2c-0.3,0.2-0.7,0.4-0.8,0.7C76,111.4,75.4,113.9,74.6,116.8z
		"/>
</g>
</svg>
