<?xml version="1.0" encoding="utf-8"?>
<!-- Generator: Adobe Illustrator 19.0.0, SVG Export Plug-In . SVG Version: 6.00 Build 0)  -->
<svg version="1.1" id="Layer_1" xmlns="http://www.w3.org/2000/svg" xmlns:xlink="http://www.w3.org/1999/xlink" x="0px" y="0px"
	 viewBox="0 0 148.8 98.3" style="enable-background:new 0 0 148.8 98.3;" xml:space="preserve">
<style type="text/css">
	.st0{fill:none;stroke:#D8D9D8;stroke-miterlimit:10;}
</style>
<path class="st0" d="M0.3,41.5c20,13.1,45.3,15.8,69.1,13.6c11.8-1.1,23.9-3.6,33.9-10.1s17.3-18,16.3-29.9
	c-0.3-3.2-1.2-6.5-3.1-9.1c-4.9-6.6-15.4-7.1-22.2-2.6S83.7,16.2,82.6,24.4c-2.1,16,4.4,32.5,15.3,44.5s25.6,19.9,41,24.9"/>
<path class="st0" d="M130.5,96.4c5.7,1.4,11.6,1.8,17.4,1c-4.1-4.8-8.8-8.9-14.1-12.2"/>
</svg>