<?xml version="1.0" encoding="utf-8"?>
<!-- Generator: Adobe Illustrator 19.0.0, SVG Export Plug-In . SVG Version: 6.00 Build 0)  -->
<svg version="1.1" id="Layer_1" xmlns="http://www.w3.org/2000/svg" xmlns:xlink="http://www.w3.org/1999/xlink" x="0px" y="0px"
	 viewBox="0 0 204.8 116.4" style="enable-background:new 0 0 204.8 116.4;" xml:space="preserve">
<style type="text/css">
	.st0{fill:none;stroke:#D8D9D8;stroke-miterlimit:10;}
</style>
<g>
	<path class="st0" d="M0.5,27.3C3.1,15,13,4.7,25.1,1.5s25.8,1.1,34,10.5c6.4,7.4,9.3,17.1,12.1,26.4c3.6,12.4,7.3,24.8,10.9,37.2
	c4.5,15.4,10.8,32.9,25.9,38.5c14.9,5.6,31-3.3,44.3-12.1c13.2-8.8,28.6-18.5,44-14.4"/>
<path class="st0" d="M194.8,83.1c3.2,1.4,6.1,3.4,8.6,5.9c0.6,0.6,1.3,1.6,0.7,2.3c-0.3,0.4-0.8,0.5-1.3,0.5
	c-3.5,0.4-7.1,0.9-10.6,1.3"/>
</g>
</svg>