<?xml version="1.0" encoding="utf-8"?>
<!-- Generator: Adobe Illustrator 19.0.0, SVG Export Plug-In . SVG Version: 6.00 Build 0)  -->
<svg version="1.1" id="Layer_1" xmlns="http://www.w3.org/2000/svg" xmlns:xlink="http://www.w3.org/1999/xlink" x="0px" y="0px"
	 viewBox="0 0 271.2 111.5" style="enable-background:new 0 0 271.2 111.5;" xml:space="preserve">
<style type="text/css">
	.st0{fill:none;stroke:#D8D9D8;stroke-miterlimit:10;}
</style>
<path class="st0" d="M2.9,13.4C1.2,27.5-0.5,41.8,1.2,55.9s6.9,28.2,17.2,38c11.1,10.5,26.8,14.8,42,16.4c21.7,2.3,43.8-0.1,64.4-7
	c14.1-4.7,28.1-11.9,36.8-23.9c5.9-8.2,9.1-18.1,11-28c2.5-12.9,3.1-26.4-0.3-39.1c-1.6-6.1-6.4-13.1-12.4-11.4
	c-1.9,0.5-3.5,1.9-4.9,3.3c-14,14.3-14.7,38.5-4.4,55.6s29.7,27.5,49.5,30.4c19.8,2.9,40-0.9,59.1-7"/>
<path class="st0" d="M249.2,78.5c6.5-0.8,13-0.5,19.4,1c0.7,0.2,1.5,0.4,1.9,1c1,1.4-0.8,3-2.3,3.8c-4.9,2.4-9.9,4.5-15,6.3"/>
</svg>