<?xml version="1.0" encoding="utf-8"?>
<!-- Generator: Adobe Illustrator 19.0.0, SVG Export Plug-In . SVG Version: 6.00 Build 0)  -->
<svg version="1.1" id="Layer_1" xmlns="http://www.w3.org/2000/svg" xmlns:xlink="http://www.w3.org/1999/xlink" x="0px" y="0px"
	 viewBox="0 0 187.6 156.2" style="enable-background:new 0 0 187.6 156.2;" xml:space="preserve">
<style type="text/css">
	.st0{fill:none;stroke:#D8D9D8;stroke-miterlimit:10;}
</style>
<path class="st0" d="M0.9,42.2c-1.8-9.1,2.9-18.5,9.8-24.6s15.9-9.4,24.8-12c28.9-8.2,62.9-8.1,85.4,11.7c5.7,5,10.5,11.3,12.9,18.6
	c5.3,16.3-2.2,33.6-8.5,49.6c-6.3,16-11,35.2-1.2,49.3c5.7,8.2,15.5,12.9,25.3,14.6c9.9,1.7,19.9,0.7,29.9-0.2"/>
<path class="st0" d="M169.1,142.8c5.2,0.1,10.4,0.8,15.4,2.2c1.2,0.3,2.7,1,2.7,2.3c0,0.6-0.4,1.1-0.8,1.6
	c-3.4,4.1-8.6,6.6-13.9,6.8"/>
</svg>