<?xml version="1.0" encoding="utf-8"?>
<!-- Generator: Adobe Illustrator 19.0.0, SVG Export Plug-In . SVG Version: 6.00 Build 0)  -->
<svg version="1.1" id="Layer_1" xmlns="http://www.w3.org/2000/svg" xmlns:xlink="http://www.w3.org/1999/xlink" x="0px" y="0px"
	 viewBox="0 0 351.8 150" style="enable-background:new 0 0 351.8 150;" xml:space="preserve">
<style type="text/css">
	.st0{fill:none;stroke:#D8D9D8;stroke-miterlimit:10;}
</style>
<path class="st0" d="M244.2,0.4c-25.7,19.3-34.8,55.1-29.6,86.9c2.3,14.1,7.3,28.2,16.9,38.9c12.6,14,31.6,20.5,50.3,22.7
	c21.2,2.5,45.6-1.5,58-18.8c5.2-7.3,7.8-16.1,9.5-24.9c2.1-10.2,3.2-21-0.6-30.6c-7.7-19.4-31.5-26.3-52.3-27.6
	c-21.5-1.3-43.3,0.8-63.8,7.3c-16.8,5.4-33,13.9-45,26.8s-19.7,30.5-18.4,48.1c0.3,3.6,1,7.4,3.4,10.1c2.4,2.7,7,3.7,9.7,1.3
	c1.5-1.4,2.1-3.4,2.4-5.5c2-14.8-11-27.3-24.1-34.4c-44.5-24.3-100.5-18-146.8,2.7"/>
<path class="st0" d="M16.2,94.2c-7.1,6-14.7,13-15.6,22.3c8-3.7,16.7-6.1,25.5-7"/>
</svg>