<?xml version="1.0" encoding="utf-8"?>
<!-- Generator: Adobe Illustrator 21.1.0, SVG Export Plug-In . SVG Version: 6.00 Build 0)  -->
<svg version="1.1" id="Layer_1" xmlns="http://www.w3.org/2000/svg" xmlns:xlink="http://www.w3.org/1999/xlink" x="0px" y="0px"
	 viewBox="0 0 131 67" style="enable-background:new 0 0 131 67;" xml:space="preserve">
<style type="text/css">
	.st0{fill:#F95E08;}
</style>
<g>
	<path class="st0" d="M37,35.1c-2.1,0-4.3,0-6.4,0c-1.4,0-2.1-0.6-2-1.6c0.1-1.2,0.9-1.6,2-1.6c4.3,0,8.5,0,12.8,0
		c1,0,1.8,0.4,1.9,1.5c0.1,1-0.6,1.6-1.8,1.7C41.2,35.1,39.1,35.1,37,35.1C37,35.1,37,35.1,37,35.1z"/>
	<path class="st0" d="M55.9,52.5c2.1,0,4.2,0,6.3,0c1.1,0,1.9,0.4,2,1.5c0.1,0.9-0.8,1.6-2,1.6c-4.2,0-8.4,0-12.7,0
		c-1.1,0-1.9-0.4-2-1.5c-0.1-1,0.7-1.6,2-1.6C51.7,52.5,53.8,52.5,55.9,52.5z"/>
	<path class="st0" d="M36.8,25.1c2.2,0,4.3,0,6.5,0c1.2,0,1.9,0.6,1.9,1.6c0,1-0.7,1.6-2,1.6c-4.3,0-8.5,0-12.8,0
		c-1.2,0-2-0.6-1.9-1.6c0.1-1.2,0.8-1.6,1.9-1.6C32.6,25.1,34.7,25.1,36.8,25.1z"/>
	<path class="st0" d="M36.8,38.8c2.2,0,4.3,0,6.5,0c1.2,0,2,0.6,1.9,1.6c-0.1,1.1-0.8,1.6-1.8,1.6c-4.3,0-8.6,0-12.9,0
		c-1.2,0-2-0.6-1.9-1.6c0.1-1.1,0.8-1.5,1.8-1.5C32.5,38.8,34.7,38.8,36.8,38.8z"/>
	<path class="st0" d="M36.8,48.7c-2.2,0-4.3,0-6.5,0c-1.1,0-1.8-0.4-1.9-1.5c-0.1-1,0.6-1.7,1.9-1.7c4.3,0,8.6,0,12.9,0
		c1.2,0,2,0.7,1.9,1.7c-0.1,1.1-0.8,1.5-1.9,1.5C41.1,48.7,39,48.7,36.8,48.7z"/>
	<path class="st0" d="M36.9,52.5c2.1,0,4.2,0,6.3,0c1.3,0,1.9,0.6,1.9,1.6c0,1-0.7,1.6-1.9,1.6c-4.3,0-8.5,0-12.8,0
		c-1.2,0-1.9-0.6-1.9-1.6c0-1,0.7-1.5,1.9-1.6C32.6,52.5,34.8,52.5,36.9,52.5z"/>
	<path class="st0" d="M55.9,48.7c-2.2,0-4.3,0-6.5,0c-1.1,0-1.8-0.4-1.9-1.5c-0.1-0.9,0.7-1.6,1.9-1.7c4.3,0,8.6,0,12.9,0
		c1.1,0,2,0.8,1.9,1.7c-0.1,1.1-0.9,1.5-1.9,1.5C60.2,48.7,58.1,48.7,55.9,48.7z"/>
	<path class="st0" d="M74.9,21.4c-2.1,0-4.1,0-6.2,0c-1.4,0-2.1-0.6-2.1-1.6c0-1,0.7-1.6,2.1-1.6c4.2,0,8.4,0,12.5,0
		c1.3,0,2.1,0.6,2.1,1.6c0,1-0.7,1.6-2.1,1.6C79.1,21.4,77,21.4,74.9,21.4z"/>
	<path class="st0" d="M75.1,35.1c-2.1,0-4.3,0-6.4,0c-1.4,0-2.1-0.6-2-1.6c0.1-1.2,0.9-1.6,2-1.6c4.3,0,8.5,0,12.8,0
		c1,0,1.8,0.4,1.9,1.5c0.1,1-0.6,1.6-1.8,1.7C79.4,35.1,77.2,35.1,75.1,35.1C75.1,35.1,75.1,35.1,75.1,35.1z"/>
	<path class="st0" d="M94.1,31.9c2.1,0,4.2,0,6.3,0c1.2,0,2,0.6,2,1.6c0,0.9-0.8,1.6-2,1.6c-4.3,0-8.6,0-12.8,0
		c-1.1,0-1.8-0.5-2-1.6c-0.1-0.9,0.8-1.6,2-1.6C89.8,31.9,92,31.9,94.1,31.9z"/>
	<path class="st0" d="M94,38.8c2.1,0,4.3,0,6.4,0c1.2,0,2,0.6,2,1.6c0,0.9-0.8,1.6-2,1.6c-4.3,0-8.6,0-12.9,0
		c-1.1,0-1.8-0.5-1.9-1.5c-0.1-1,0.7-1.6,1.9-1.6C89.7,38.7,91.9,38.8,94,38.8z"/>
	<path class="st0" d="M94.1,52.5c2.1,0,4.2,0,6.3,0c1.1,0,1.9,0.4,2,1.5c0.1,0.9-0.8,1.6-2,1.6c-4.2,0-8.4,0-12.7,0
		c-1.1,0-1.9-0.4-2-1.5c-0.1-1,0.7-1.6,2-1.6C89.9,52.5,92,52.5,94.1,52.5z"/>
	<path class="st0" d="M74.9,25.1c2.2,0,4.3,0,6.5,0c1.2,0,1.9,0.6,1.9,1.6c0,1-0.7,1.6-2,1.6c-4.3,0-8.5,0-12.8,0
		c-1.2,0-2-0.6-1.9-1.6c0.1-1.2,0.8-1.6,1.9-1.6C70.7,25.1,72.8,25.1,74.9,25.1z"/>
	<path class="st0" d="M75,11.4c2.1,0,4.2,0,6.3,0c1.3,0,1.9,0.6,1.9,1.6c0,1-0.7,1.6-1.9,1.6c-4.3,0-8.5,0-12.8,0
		c-1.3,0-1.9-0.6-1.9-1.6c0-1,0.7-1.6,1.9-1.6C70.7,11.4,72.9,11.4,75,11.4z"/>
	<path class="st0" d="M75,38.8c2.2,0,4.3,0,6.5,0c1.2,0,2,0.6,1.9,1.6c-0.1,1.1-0.8,1.6-1.8,1.6c-4.3,0-8.6,0-12.9,0
		c-1.2,0-2-0.6-1.9-1.6c0.1-1.1,0.8-1.5,1.8-1.5C70.7,38.8,72.8,38.8,75,38.8z"/>
	<path class="st0" d="M75,48.7c-2.2,0-4.3,0-6.5,0c-1.1,0-1.8-0.4-1.9-1.5c-0.1-1,0.6-1.7,1.9-1.7c4.3,0,8.6,0,12.9,0
		c1.2,0,2,0.7,1.9,1.7c-0.1,1.1-0.8,1.5-1.9,1.5C79.3,48.7,77.1,48.7,75,48.7z"/>
	<path class="st0" d="M75,52.5c2.1,0,4.2,0,6.3,0c1.3,0,1.9,0.6,1.9,1.6c0,1-0.7,1.6-1.9,1.6c-4.3,0-8.5,0-12.8,0
		c-1.2,0-1.9-0.6-1.9-1.6c0-1,0.7-1.5,1.9-1.6C70.7,52.5,72.9,52.5,75,52.5z"/>
	<path class="st0" d="M94,48.7c-2.2,0-4.3,0-6.5,0c-1.1,0-1.8-0.4-1.9-1.5c-0.1-0.9,0.7-1.6,1.9-1.7c4.3,0,8.6,0,12.9,0
		c1.1,0,2,0.8,1.9,1.7c-0.1,1.1-0.9,1.5-1.9,1.5C98.4,48.7,96.2,48.7,94,48.7z"/>
</g>
</svg>
