<?xml version="1.0" encoding="utf-8"?>
<!-- Generator: Adobe Illustrator 21.1.0, SVG Export Plug-In . SVG Version: 6.00 Build 0)  -->
<svg version="1.1" id="Layer_1" xmlns="http://www.w3.org/2000/svg" xmlns:xlink="http://www.w3.org/1999/xlink" x="0px" y="0px"
	 viewBox="0 0 210 190" style="enable-background:new 0 0 210 190;" xml:space="preserve">
<style type="text/css">
	.st0{fill:#FFFFFF;}
	.st1{clip-path:url(#SVGID_2_);}
	.st2{fill:#E8E8E8;}
	.st3{fill:#F95E08;}
</style>
<g>
	<path class="st0" d="M47.4,29.1c5.5-1.2,11.3-1.2,16.9-0.2c3.6,0.7,7.2,1.9,9.8,4.5c2.6,2.6,3.9,6.7,2.3,10
		c-1.4,2.8-4.4,4.3-7.4,5.2c-7.4,2.3-24.7,4.3-31-2.3C30.2,38.1,38.3,31,47.4,29.1z"/>
	<path class="st0" d="M60.4,69.9C75.7,61.1,94.1,58.4,112,58c20.4-0.4,44,3.6,54.1,20.2c5.4,8.9,5.8,19.7,4.3,29.9
		c-1.1,7.8-3.2,15.6-8.1,22c-8,10.3-21.8,14.9-35,17.4c-16.2,3.1-32.9,3.8-49.4,2.2C31.6,145.3,21.4,92.3,60.4,69.9z"/>
	<g>
		<defs>
			<path id="SVGID_1_" d="M98.6,63.3h-3.9c-4.1,0-8.2,0-12.4,0c-2.4,0-2.7,0.3-2.7,2.6c0,12.1,0,24.2,0,36.3c0,2.1,0.3,2.5,2.5,2.5
				c19.1,0,38.3,0,57.4,0c2.1,0,2.4-0.4,2.4-2.5c0-12.1,0-24.2,0-36.3c0-2.2-0.3-2.6-2.6-2.6c-1,0-2,0.1-3,0h-37
				C99.2,63.3,98.9,63.3,98.6,63.3z"/>
		</defs>
		<clipPath id="SVGID_2_">
			<use xlink:href="#SVGID_1_"  style="overflow:visible;"/>
		</clipPath>
		<g class="st1">
			
				<rect x="76.4" y="75.2" transform="matrix(0.7656 -0.6433 0.6433 0.7656 -61.9957 79.3076)" class="st2" width="3" height="99.1"/>
			
				<rect x="80.3" y="70.2" transform="matrix(0.7656 -0.6433 0.6433 0.7656 -57.8725 80.6779)" class="st2" width="3" height="99.1"/>
			
				<rect x="84.5" y="65.1" transform="matrix(0.7656 -0.6433 0.6433 0.7656 -53.5796 82.1459)" class="st2" width="3" height="99.1"/>
			
				<rect x="88.7" y="59.8" transform="matrix(0.7656 -0.6433 0.6433 0.7656 -49.2301 83.6466)" class="st2" width="3" height="99.1"/>
			
				<rect x="92.9" y="54.7" transform="matrix(0.7656 -0.6433 0.6433 0.7656 -44.9373 85.1146)" class="st2" width="3" height="99.1"/>
			<rect x="97" y="49.5" transform="matrix(0.7656 -0.6433 0.6433 0.7656 -40.6444 86.5827)" class="st2" width="3" height="99.1"/>
			<rect x="101" y="44.5" transform="matrix(0.7656 -0.6433 0.6433 0.7656 -36.5211 87.953)" class="st2" width="3" height="99.1"/>
			
				<rect x="104.9" y="39.6" transform="matrix(0.7656 -0.6433 0.6433 0.7656 -32.3979 89.3233)" class="st2" width="3" height="99.1"/>
			
				<rect x="108.9" y="34.6" transform="matrix(0.7656 -0.6433 0.6433 0.7656 -28.2747 90.6936)" class="st2" width="3" height="99.1"/>
			
				<rect x="113" y="29.4" transform="matrix(0.7656 -0.6433 0.6433 0.7656 -23.9818 92.1616)" class="st2" width="3" height="99.1"/>
			
				<rect x="117.2" y="24.2" transform="matrix(0.7656 -0.6433 0.6433 0.7656 -19.6323 93.6623)" class="st2" width="3" height="99.1"/>
			
				<rect x="121.4" y="19.1" transform="matrix(0.7656 -0.6433 0.6433 0.7656 -15.3394 95.1303)" class="st2" width="3" height="99.1"/>
			
				<rect x="125.6" y="13.9" transform="matrix(0.7656 -0.6433 0.6433 0.7656 -11.0465 96.5984)" class="st2" width="3" height="99.1"/>
			
				<rect x="129.5" y="8.9" transform="matrix(0.7656 -0.6433 0.6433 0.7656 -6.9233 97.9687)" class="st2" width="3" height="99.1"/>
		</g>
	</g>
	<g>
		<path class="st3" d="M121.2,130.5c-7.5,0-14.7,0-22.1,0c0-1.8,0.1-3.5,0-5.2c0-0.6-0.3-1.7-0.6-1.8c-0.7-0.2-1.6,0-2.4,0.2
			c-0.6,0.1-1.3,0.8-1.7,0.7c-0.8-0.3-1.9-0.8-2.2-1.5c-0.3-0.7,0-2,0.6-2.6c0.6-0.5,1.7-0.4,2.6-0.4c0.3,0,0.5,0.4,0.8,0.6
			c1.6,1,2.9,0.3,2.9-1.5c0-1.7,0-3.5,0-5.5c2.6,0,5,0.1,7.4,0c0.8,0,2-0.3,2.2-0.8c0.3-0.7,0-1.8-0.4-2.5c-0.8-1.3-0.7-2.5,0.4-3.4
			c1-0.9,2.2-0.8,3.2,0.1c1,0.9,1,2,0.4,3.3c-0.4,0.8-0.7,1.9-0.5,2.7c0.1,0.4,1.5,0.6,2.3,0.7c2.4,0.1,4.7,0,7.2,0
			c0,1.9-0.1,3.5,0,5.2c0,0.7,0.3,1.8,0.7,1.9c0.7,0.2,1.7,0.1,2.4-0.3c1-0.6,2-1,3-0.3c1.2,0.8,1.5,2.2,0.8,3.3
			c-0.7,1.1-2.1,1.5-3.3,0.8c-0.5-0.3-1.1-0.7-1.7-0.8c-1.2-0.2-2,0.3-1.9,1.7C121.3,126.7,121.2,128.5,121.2,130.5z"/>
		<path d="M109.1,79c-2.6,0-4.8,0.1-7.1,0c-0.9,0-2.3-0.3-2.4-0.7c-0.2-0.8,0.4-1.9,0.5-2.8c0.1-0.9,0.3-2-0.1-2.7
			c-0.4-0.6-1.6-1.1-2.3-0.9c-0.8,0.2-1.6,1.1-1.9,1.9c-0.2,0.5,0.3,1.4,0.5,2.1c0.2,0.8,0.6,1.8,0.3,2.5c-0.1,0.4-1.3,0.7-2.1,0.7
			c-2.4,0.1-4.8,0-7.4,0c0,1.9,0.1,3.5,0,5.2c0,0.7-0.3,1.7-0.7,1.9c-0.7,0.2-1.6-0.1-2.4-0.3c-0.8-0.2-1.6-0.8-2.2-0.6
			c-0.7,0.3-1.7,1.1-1.8,1.8c-0.1,0.8,0.3,2,1,2.5c0.6,0.4,1.7,0.2,2.5,0.1c0.2,0,0.4-0.4,0.7-0.5c1.6-1,2.9-0.3,2.9,1.6
			c0,2,0,4.1,0,6.1c0,1.2-0.5,1.8-1.8,1.8c-7.4,0-14.7,0-22.1,0c-1.3,0-1.9-0.5-1.9-1.9c0-12.2,0-24.3,0-36.5c0-1.9,1-2,2.5-2
			c21.6,0,43.2,0,64.8,0c1.4,0,2.8,0,4.2,0c1.3,0,1.9,0.5,1.9,1.8c0,12.2,0,24.4,0,36.6c0,1.3-0.5,1.9-1.9,1.9c-7.4,0-14.7,0-22.1,0
			c-1.3,0-1.8-0.6-1.8-1.8c0-2,0-4.1,0-6.1c0-1.8,1.3-2.5,3-1.6c0.7,0.4,1.6,1,2.1,0.8c0.8-0.2,1.8-1,2-1.8c0.2-0.7-0.2-2-0.8-2.4
			c-0.6-0.5-1.8-0.3-2.7-0.3c-0.3,0-0.6,0.5-1,0.7c-1.4,0.8-2.7,0-2.7-1.6C109.1,82.8,109.1,81,109.1,79z M132.3,60.8
			c-22.8,0-45.6,0-68.3,0c0,11.8,0,23.5,0,35.2c6.9,0,13.8,0,20.7,0c0-0.7,0-1.4,0-2c0-0.7,0-1.3,0-2c-3.3,0.8-5.1,0.3-6.4-1.6
			c-1.2-1.7-1.2-3.8-0.1-5.5c1.3-2,3.2-2.5,6.5-1.7c0-0.9,0-1.8,0-2.6c0-4.3-0.4-4,3.9-4c1.7,0,3.4,0,5.2,0
			c-0.8-2.6-0.7-4.8,1.4-6.4c1.6-1.2,3.7-1.3,5.4-0.3c2.6,1.6,2.7,3.9,1.9,6.7c2.4,0,4.7,0.1,7.1,0c1.5-0.1,2.1,0.6,2,2.1
			c-0.1,1.5,0,3,0,4.5c3.3-0.7,5.1-0.3,6.4,1.5c1.2,1.6,1.3,3.7,0.2,5.4c-1.6,2.5-3.9,2.7-6.5,1.9c0,1.4,0,2.7,0,4
			c6.9,0,13.7,0,20.6,0C132.3,84.3,132.3,72.6,132.3,60.8z"/>
		<path d="M127.5,125c0,1.5,0,3,0,4.5c0.1,1.5-0.5,2.1-2,2.1c-7.6,0-15.3,0-22.9,0c-1.5,0-2-0.6-1.9-2c0.1-1.5,0-3,0-4.7
			c-2.8,0.8-5.3,0.6-6.8-2.1c-1-1.8-0.9-3.6,0.3-5.2c1.6-2.1,3.8-2.4,6.4-1.4c0-1.6,0.1-3.1,0-4.5c-0.1-1.6,0.4-2.3,2.1-2.2
			c2.2,0.1,4.5,0,6.9,0c-1-2.7-0.7-5,1.7-6.6c1.7-1.1,3.5-1.1,5.2,0c2.5,1.6,2.6,3.9,1.8,6.6c2.5,0,4.8,0,7.2,0
			c1.3,0,1.9,0.5,1.9,1.8c-0.1,1.6,0,3.1,0,4.8c2.6-0.9,4.8-0.6,6.5,1.6c1.2,1.7,1.2,3.7,0,5.4C132.7,125.2,130.8,125.7,127.5,125z
			 M125.1,129.1c0-1.9,0-3.7,0-5.5c0-1.4,0.7-1.9,1.9-1.7c0.6,0.1,1.1,0.5,1.7,0.8c1.2,0.7,2.6,0.3,3.3-0.8c0.7-1.2,0.4-2.6-0.8-3.3
			c-1.1-0.7-2-0.4-3,0.3c-0.6,0.4-1.7,0.5-2.4,0.3c-0.4-0.1-0.7-1.2-0.7-1.9c-0.1-1.7,0-3.3,0-5.2c-2.5,0-4.9,0.1-7.2,0
			c-0.8,0-2.1-0.2-2.3-0.7c-0.2-0.8,0-1.9,0.5-2.7c0.6-1.3,0.7-2.4-0.4-3.3c-1-0.9-2.2-0.9-3.2-0.1c-1.1,1-1.2,2.1-0.4,3.4
			c0.4,0.7,0.7,1.8,0.4,2.5c-0.2,0.5-1.4,0.7-2.2,0.8c-2.4,0.1-4.8,0-7.4,0c0,2,0,3.7,0,5.5c0,1.8-1.3,2.5-2.9,1.5
			c-0.3-0.2-0.6-0.6-0.8-0.6c-0.9,0-2.1-0.1-2.6,0.4c-0.6,0.5-0.9,1.9-0.6,2.6c0.3,0.7,1.4,1.3,2.2,1.5c0.4,0.1,1.1-0.5,1.7-0.7
			c0.8-0.2,1.7-0.4,2.4-0.2c0.3,0.1,0.6,1.1,0.6,1.8c0.1,1.7,0,3.4,0,5.2C110.4,129.1,117.6,129.1,125.1,129.1z"/>
		<path d="M102.8,87.9c-0.7,0.7-1.2,1.2-1.8,1.7c-0.9-0.8-1.7-1.6-2.9-2.7c0,4.1,0,7.8,0,11.6c-0.8,0-1.4,0-2.2,0
			c0-3.7,0-7.4,0-11.7c-1.2,1.1-2,1.9-3,2.8c-0.6-0.5-1.1-1.1-1.8-1.8c1.7-1.6,3.2-3.1,4.8-4.5c0.4-0.4,1.6-0.4,2-0.1
			C99.6,84.7,101.1,86.3,102.8,87.9z"/>
		<path d="M71.1,110.8c0,0.8,0,1.5,0,2.3c-0.7,0-1.4,0-2.2,0c0-0.7,0-1.4,0-2.2C69.6,110.9,70.3,110.8,71.1,110.8z"/>
		<path d="M68.9,115.8c0.8,0,1.4,0,2.2,0c0,0.7,0,1.4,0,2.2c-0.7,0-1.4,0-2.2,0C68.9,117.3,68.9,116.6,68.9,115.8z"/>
		<path d="M68.9,108.2c0-0.8,0-1.4,0-2.1c0.7,0,1.4,0,2.2,0c0,0.6,0,1.3,0,2.1C70.4,108.2,69.6,108.2,68.9,108.2z"/>
		<path d="M68.9,101.1c0.8,0,1.5,0,2.2,0c0,0.7,0,1.4,0,2.3c-0.7,0-1.4,0-2.2,0C68.9,102.6,68.9,102,68.9,101.1z"/>
		<path d="M71.1,122.9c-0.8,0-1.4,0-2.1,0c0-0.7,0-1.4,0-2.2c0.7,0,1.4,0,2.1,0C71.1,121.5,71.1,122.2,71.1,122.9z"/>
		<path d="M76,120.7c0,0.7,0,1.4,0,2.1c-0.7,0-1.4,0-2.2,0c0-0.7,0-1.3,0-2.1C74.5,120.7,75.2,120.7,76,120.7z"/>
		<path d="M80.9,120.7c0,0.8,0,1.4,0,2.1c-0.7,0-1.4,0-2.2,0c0-0.7,0-1.4,0-2.1C79.5,120.7,80.1,120.7,80.9,120.7z"/>
		<path d="M83.6,120.7c0.8,0,1.4,0,2.2,0c0,0.7,0.1,1.3,0.1,2.1c-0.8,0-1.5,0-2.3,0C83.6,122.1,83.6,121.5,83.6,120.7z"/>
		<path d="M98,106.1c0,0.8,0,1.4,0,2.2c-0.7,0-1.4,0-2.1,0c0-0.7,0-1.4,0-2.2C96.5,106.1,97.2,106.1,98,106.1z"/>
		<path d="M95.9,113.1c0-0.7,0-1.4,0-2.2c0.7,0,1.3,0,2,0c0,0.7,0,1.4,0,2.2C97.3,113.1,96.6,113.1,95.9,113.1z"/>
		<path d="M90.7,120.7c0,0.7,0,1.4,0,2.1c-0.7,0-1.4,0-2.1,0c0-0.7,0-1.4,0-2.1C89.3,120.7,89.9,120.7,90.7,120.7z"/>
		<path d="M95.8,103.3c0-0.8,0-1.4,0-2.2c0.7,0,1.4,0,2.1,0c0,0.7,0,1.4,0,2.2C97.3,103.3,96.7,103.3,95.8,103.3z"/>
		<path class="st0" d="M132.3,60.8c0,11.8,0,23.5,0,35.2c-6.9,0-13.7,0-20.6,0c0-1.3,0-2.6,0-4c2.6,0.7,4.9,0.6,6.5-1.9
			c1-1.7,0.9-3.8-0.2-5.4c-1.3-1.8-3.1-2.3-6.4-1.5c0-1.5-0.1-3,0-4.5c0.1-1.5-0.4-2.1-2-2.1c-2.3,0.1-4.6,0-7.1,0
			c0.8-2.7,0.7-5.1-1.9-6.7c-1.7-1-3.8-0.9-5.4,0.3c-2.1,1.6-2.2,3.8-1.4,6.4c-1.8,0-3.5,0-5.2,0c-4.3,0-3.9-0.4-3.9,4
			c0,0.9,0,1.7,0,2.6c-3.3-0.8-5.2-0.3-6.5,1.7c-1.1,1.7-1.1,3.9,0.1,5.5c1.4,1.9,3.2,2.4,6.4,1.6c0,0.7,0,1.4,0,2c0,0.6,0,1.3,0,2
			c-7,0-13.8,0-20.7,0c0-11.7,0-23.4,0-35.2C86.7,60.8,109.5,60.8,132.3,60.8z"/>
	</g>
</g>
</svg>
