<?xml version="1.0" encoding="utf-8"?>
<!-- Generator: Adobe Illustrator 21.1.0, SVG Export Plug-In . SVG Version: 6.00 Build 0)  -->
<svg version="1.1" id="Layer_1" xmlns="http://www.w3.org/2000/svg" xmlns:xlink="http://www.w3.org/1999/xlink" x="0px" y="0px"
	 viewBox="0 0 131 67" style="enable-background:new 0 0 131 67;" xml:space="preserve">
<style type="text/css">
	.st0{fill:#F95E08;}
</style>
<g>
	<path class="st0" d="M94.4,10.9c0,14.9,0,29.7,0,44.6c-0.8,0.3-1.6,0.8-2.5,0.8c-17.7,0-35.3,0-53,0c-0.8,0-1.6-0.5-2.5-0.8
		c0-14.9,0-29.7,0-44.6c0.8-0.3,1.6-0.8,2.5-0.8c17.7,0,35.3,0,53,0C92.8,10.1,93.6,10.6,94.4,10.9z M39.5,21.7
		c0,10.6,0,21.1,0,31.7c17.4,0,34.7,0,51.9,0c0-10.6,0-21.2,0-31.7C74.1,21.7,56.8,21.7,39.5,21.7z M39.5,18.6c17.4,0,34.7,0,52,0
		c0-1.9,0-3.7,0-5.6c-17.4,0-34.6,0-52,0C39.5,14.9,39.5,16.7,39.5,18.6z"/>
	<path class="st0" d="M48.6,37.9c2.1,2.1,4.2,4.2,6.2,6.2c0.8,0.8,0.9,1.6-0.1,2.2c-0.4,0.3-1.3,0.3-1.6,0c-2.5-2.4-5-4.9-7.5-7.4
		c-0.7-0.7-0.6-1.4,0.1-2.1c2.4-2.4,4.8-4.8,7.2-7.2c0.6-0.6,1.2-0.7,1.9-0.1c0.7,0.7,0.7,1.4,0,2c-1.7,1.7-3.5,3.5-5.2,5.2
		C49.4,37.1,49,37.4,48.6,37.9z"/>
	<path class="st0" d="M81.8,37.9c-2.1-2.1-4.1-4.1-6.1-6.1c-0.7-0.7-1.1-1.4-0.3-2.2c0.8-0.9,1.5-0.5,2.2,0.2
		c2.2,2.3,4.5,4.5,6.8,6.8c1,1,1,1.6,0,2.7c-2.2,2.3-4.5,4.5-6.8,6.8c-0.7,0.7-1.4,1.1-2.2,0.2c-0.9-0.9-0.4-1.5,0.3-2.2
		C77.7,42,79.7,40,81.8,37.9z"/>
	<path class="st0" d="M71.1,29c-0.2,0.5-0.3,0.8-0.5,1.1c-3.2,5.6-6.4,11.1-9.5,16.7c-0.5,0.9-1,1.3-2,0.7c-1-0.5-0.9-1.2-0.4-2.1
		c3.2-5.6,6.4-11.1,9.6-16.7c0.3-0.4,1-0.9,1.5-0.8C70.2,28.1,70.7,28.7,71.1,29z"/>
	<circle class="st0" cx="42.4" cy="15.6" r="1.2"/>
	<circle class="st0" cx="46.8" cy="15.6" r="1.2"/>
	<circle class="st0" cx="51.1" cy="15.6" r="1.2"/>
</g>
</svg>
