<?xml version="1.0" encoding="utf-8"?>
<!-- Generator: Adobe Illustrator 21.1.0, SVG Export Plug-In . SVG Version: 6.00 Build 0)  -->
<svg version="1.1" id="Layer_1" xmlns="http://www.w3.org/2000/svg" xmlns:xlink="http://www.w3.org/1999/xlink" x="0px" y="0px"
	 viewBox="0 0 100 100" style="enable-background:new 0 0 100 100;" xml:space="preserve">
<style type="text/css">
	.st0{fill:#FFFFFF;}
</style>
<g>
	<path class="st0" d="M91.6,90c-6,0-11.8,0-17.8,0c0-3.2,0-6.2,0-9.3c0-6.5,0-13.1,0-19.6c0-1.6-0.2-3.2-0.5-4.7
		c-1-4.8-4.1-7.5-8.5-7.5c-4.6,0.1-8.7,3.3-9.5,7.7c-0.3,1.6-0.4,3.3-0.4,5c0,9.4,0,18.7,0,28.2c-5.9,0-11.7,0-17.6,0
		c0-17.9,0-35.7,0-53.7c5.8,0,11.4,0,17.5,0c0,2.2,0,4.4,0,7.2c0.7-0.6,1-0.8,1.2-1c5.3-7.2,12.6-8.7,20.8-6.8
		c8,1.8,12.3,7.5,14.1,15.2c0.6,2.6,0.9,5.2,0.9,7.9c0.1,9.9,0,19.8,0,29.7C91.7,88.8,91.7,89.3,91.6,90z"/>
	<path class="st0" d="M27,90c-5.9,0-11.6,0-17.5,0c0-17.9,0-35.7,0-53.7c5.7,0,11.5,0,17.5,0C27,54,27,71.9,27,90z"/>
	<path class="st0" d="M18.3,28.6c-5.9,0-10-3.8-10.1-9.2c0-5.3,4.2-9.3,10-9.4c5.7-0.1,10,3.9,10,9.3C28.3,24.8,24.2,28.6,18.3,28.6
		z"/>
</g>
</svg>
