<?xml version="1.0" encoding="utf-8"?>
<!-- Generator: Adobe Illustrator 21.1.0, SVG Export Plug-In . SVG Version: 6.00 Build 0)  -->
<svg version="1.1" id="Layer_1" xmlns="http://www.w3.org/2000/svg" xmlns:xlink="http://www.w3.org/1999/xlink" x="0px" y="0px"
	 viewBox="0 0 210 190" style="enable-background:new 0 0 210 190;" xml:space="preserve">
<style type="text/css">
	.st0{fill:#FFFFFF;}
	.st1{clip-path:url(#SVGID_2_);}
	.st2{fill:#E8E8E8;}
	.st3{fill:#F95E08;}
</style>
<g>
	<path class="st0" d="M33.3,110c-6.1-6.2-7.4-16.1-4.5-24.3s9.6-14.6,17.2-18.7s16.2-6.1,24.8-7.3c20.5-3,41.5-2.1,61.6,2.6
		c12.8,3,25.5,7.6,35.7,15.9c8.9,7.3,15.6,17.3,18.9,28.3c2.2,7.4,2.8,16-1.5,22.4c-3.7,5.5-10.1,8.3-16.4,10.4
		c-37.3,12.2-77.8,5.5-116.2-2.6c-6.6-1.4-13.4-2.9-18.8-6.9c-5.3-4-8.7-10-10.8-16.3c-2-5.8-2.9-12.1-1.7-18.2
		c1.2-6,4.9-11.7,10.4-14.5"/>
	<g>
		<g>
			<defs>
				<path id="SVGID_1_" d="M119.8,69.9v-5c0-5.4,0-10.7,0-16.1c0-3.1-0.4-3.5-3.4-3.5c-15.7,0-31.4,0-47.1,0c-2.8,0-3.2,0.4-3.2,3.2
					c0,24.9,0,49.7,0,74.6c0,2.7,0.5,3.2,3.2,3.2c15.7,0,31.4,0,47.1,0c2.9,0,3.3-0.4,3.4-3.3c0-1.3-0.1-2.6,0-3.9v-48
					C119.8,70.7,119.8,70.3,119.8,69.9z"/>
			</defs>
			<clipPath id="SVGID_2_">
				<use xlink:href="#SVGID_1_"  style="overflow:visible;"/>
			</clipPath>
			<g class="st1">
				
					<rect x="38.1" y="-21.4" transform="matrix(0.6433 0.7656 -0.7656 0.6433 47.1352 -15.3163)" class="st2" width="3.8" height="128.7"/>
				
					<rect x="44.5" y="-16.3" transform="matrix(0.6433 0.7656 -0.7656 0.6433 53.3592 -18.4352)" class="st2" width="3.8" height="128.7"/>
				
					<rect x="51.2" y="-10.9" transform="matrix(0.6433 0.7656 -0.7656 0.6433 59.886 -21.6356)" class="st2" width="3.8" height="128.7"/>
				
					<rect x="58" y="-5.4" transform="matrix(0.6433 0.7656 -0.7656 0.6433 66.5139 -24.8632)" class="st2" width="3.8" height="128.7"/>
				
					<rect x="64.7" y="0" transform="matrix(0.6433 0.7656 -0.7656 0.6433 73.0408 -28.0636)" class="st2" width="3.8" height="128.7"/>
				
					<rect x="71.4" y="5.4" transform="matrix(0.6433 0.7656 -0.7656 0.6433 79.5677 -31.2641)" class="st2" width="3.8" height="128.7"/>
				
					<rect x="77.9" y="10.5" transform="matrix(0.6433 0.7656 -0.7656 0.6433 85.7916 -34.383)" class="st2" width="3.8" height="128.7"/>
				
					<rect x="84.3" y="15.6" transform="matrix(0.6433 0.7656 -0.7656 0.6433 92.0155 -37.5019)" class="st2" width="3.8" height="128.7"/>
				
					<rect x="90.8" y="20.8" transform="matrix(0.6433 0.7656 -0.7656 0.6433 98.2394 -40.6209)" class="st2" width="3.8" height="128.7"/>
				
					<rect x="97.5" y="26.2" transform="matrix(0.6433 0.7656 -0.7656 0.6433 104.7663 -43.8213)" class="st2" width="3.8" height="128.7"/>
				
					<rect x="104.3" y="31.7" transform="matrix(0.6433 0.7656 -0.7656 0.6433 111.3942 -47.0489)" class="st2" width="3.8" height="128.7"/>
				
					<rect x="111" y="37.1" transform="matrix(0.6433 0.7656 -0.7656 0.6433 117.9211 -50.2493)" class="st2" width="3.8" height="128.7"/>
				
					<rect x="117.7" y="42.5" transform="matrix(0.6433 0.7656 -0.7656 0.6433 124.448 -53.4497)" class="st2" width="3.8" height="128.7"/>
				
					<rect x="124.1" y="47.6" transform="matrix(0.6433 0.7656 -0.7656 0.6433 130.6719 -56.5686)" class="st2" width="3.8" height="128.7"/>
			</g>
		</g>
		<rect x="80.5" y="41.5" class="st0" width="43.5" height="64.4"/>
		<g>
			<path class="st3" d="M114.7,51.5c0,1,0,1.8,0,2.9c-9.5,0-19,0-28.6,0c0-0.9,0-1.8,0-2.9C95.5,51.5,104.9,51.5,114.7,51.5z"/>
			<path class="st3" d="M95.2,76.3c-3.1,0-6,0-9.1,0c0-4.1,0-8.2,0-12.4c3,0,6,0,9.1,0C95.2,68,95.2,72,95.2,76.3z"/>
			<path class="st3" d="M146.4,110.5c-3.6,0.1-6.7-1-9.8-2.7c-4.9-2.6-9.8-5-14.7-7.6c-0.6-0.3-0.9-1.1-1.3-1.7
				c0.7-0.4,1.6-1.3,2.2-1.2c3.4,0.9,6.7,2.1,10.1,3c0.9,0.3,2,0,3,0c-0.4-0.9-0.5-2.1-1.1-2.8c-5.4-5.5-10.9-11-16.4-16.5
				c-0.5-0.5-1-1-1.6-1.6c-0.9-0.9-1.2-2.1-0.1-2.8c0.7-0.4,2.3-0.3,2.8,0.2c3,2.7,5.8,5.7,8.7,8.5c1,1,2,2,3,3
				c0.8,0.8,1.6,2.1,2.9,0.8c1.3-1.2,0.1-2.1-0.7-2.9c-3.3-3.3-6.6-6.6-9.8-9.9c-1.7-1.7-3.3-3.3-5-5c-1-1-1.5-2.1-0.3-3.3
				c1.1-1,2.2-0.5,3.1,0.5c4.8,4.8,9.6,9.6,14.3,14.4c0.3,0.3,0.6,0.8,0.9,0.9c0.8,0.2,1.7,0.2,2.5,0.3c-0.1-0.8,0.1-1.8-0.3-2.3
				c-1.1-1.4-2.4-2.6-3.7-3.8c-1-0.9-1.4-2-0.3-3.1c1.1-1.1,2.1-0.7,3.1,0.3c1.8,1.8,3.6,3.7,5.5,5.5c0.8,0.8,1.6,1.5,2.6,0.5
				c1-1,0.3-1.9-0.5-2.6c-0.4-0.4-0.8-0.8-1.3-1.3c-1-1.1-2.5-2.1-1-3.7c1.5-1.6,2.6-0.2,3.7,0.8c3.4,3.4,6.8,6.8,10.2,10.2
				c1.9,1.9,3.9,3.8,5.8,5.8c2.4,2.5,2.4,4.9,0,7.4c-3.8,3.9-7.5,7.8-11.5,11.3C150.3,110.3,148.1,110.2,146.4,110.5z"/>
			<path d="M72.2,37.1c1.2-3,3.5-4,6.6-4c15.6,0.1,31.3,0,46.9,0c4.5,0,6.3,1.8,6.3,6.3c0,7,0,14,0,21c0,1.2,0.5,2.9-1.4,2.9
				c-1.9,0-1.5-1.6-1.5-2.8c0-6.9,0-13.9,0-20.8c0-3.1-0.4-3.5-3.4-3.5c-15.7,0-31.4,0-47.1,0c-2.8,0-3.2,0.4-3.2,3.2
				c0,24.9,0,49.7,0,74.6c0,2.7,0.5,3.2,3.2,3.2c15.7,0,31.4,0,47.1,0c2.9,0,3.3-0.4,3.4-3.3c0-1.5-0.2-3,0.1-4.4
				c0.1-0.7,1-1.3,1.5-2c0.5,0.6,1.2,1.2,1.3,1.9c0.2,1.7,0.1,3.5,0.1,5.3c0,3.6-2,5.6-5.6,5.6c-10.8,0-21.5,0-32.3,0
				c-5.1,0-10.2-0.1-15.3,0c-3.2,0.1-5.4-1-6.6-4C72.2,89.9,72.2,63.5,72.2,37.1z"/>
			<path d="M125.6,89.5c-4.3-4.2-8.3-8.2-12.3-12.2c-3.6-3.5-3.5-6.1,0.3-9.4c-1.7-3.1-1.6-5.4,0.2-7.2c2.1-2,5-2,7.3,0.3
				c2.7,2.6,5.3,5.3,8,7.9c3.2-3.4,4.8-3.6,8.7-1.5c3.1-3.6,5.9-3.7,9.3-0.3c5.2,5.2,10.4,10.4,15.6,15.6c4,4,4,8.2,0.1,12.2
				c-3.9,4-7.8,7.9-11.7,11.7c-0.5,0.5-1.3,1.1-2,1.1c-5.7,0.1-11.4,0.4-16.7-2.9c-4.7-3-9.9-5.3-14.9-7.7c-1.9-0.9-2.6-2.1-2.2-4.2
				c0.6-2.5,2-4.2,4.2-4.2C121.2,88.9,123.1,89.2,125.6,89.5z M144.1,105.2c1.7-0.4,3.9-0.2,5.1-1.3c4-3.6,7.7-7.5,11.5-11.3
				c2.4-2.5,2.4-4.9,0-7.4c-1.9-2-3.9-3.9-5.8-5.8c-3.4-3.4-6.8-6.8-10.2-10.2c-1-1-2.2-2.4-3.7-0.8c-1.5,1.6,0,2.6,1,3.7
				c0.4,0.4,0.8,0.8,1.3,1.3c0.8,0.8,1.5,1.6,0.5,2.6c-1,1-1.9,0.3-2.6-0.5c-1.8-1.8-3.6-3.7-5.5-5.5c-0.9-0.9-2-1.4-3.1-0.3
				c-1.1,1.1-0.6,2.1,0.3,3.1c1.3,1.2,2.6,2.4,3.7,3.8c0.4,0.5,0.2,1.5,0.3,2.3c-0.8-0.1-1.7-0.1-2.5-0.3c-0.4-0.1-0.6-0.6-0.9-0.9
				c-4.8-4.8-9.6-9.6-14.3-14.4c-0.9-0.9-2-1.5-3.1-0.5c-1.2,1.1-0.7,2.2,0.3,3.3c1.7,1.7,3.3,3.3,5,5c3.3,3.3,6.6,6.6,9.8,9.9
				c0.8,0.8,2,1.7,0.7,2.9c-1.3,1.2-2.1-0.1-2.9-0.8c-1-1-2-2-3-3c-2.9-2.9-5.7-5.8-8.7-8.5c-0.6-0.5-2.1-0.6-2.8-0.2
				c-1.1,0.7-0.8,1.9,0.1,2.8c0.5,0.5,1,1.1,1.6,1.6c5.5,5.5,11,10.9,16.4,16.5c0.6,0.7,0.7,1.8,1.1,2.8c-1,0-2,0.2-3,0
				c-3.4-0.9-6.7-2.1-10.1-3c-0.6-0.2-1.5,0.8-2.2,1.2c0.4,0.6,0.8,1.3,1.3,1.7c4.9,2.6,9.8,5,14.7,7.6
				C137.4,104.1,140.5,105.3,144.1,105.2z"/>
			<path d="M81.6,104.8c12.6,0,24.9,0,37.3,0c1.7,0,3.4-0.1,5.1,0.1c0.6,0.1,1.1,0.8,1.7,1.3c-0.5,0.6-1,1.2-1.7,1.6
				c-0.3,0.2-0.9,0-1.3,0c-13.7,0-27.4,0-41.1,0c-3.1,0-3.3-0.2-3.3-3.2c0-20.7,0-41.4,0-62.1c0-2.8,0.3-3.1,3-3.1
				c13.9,0,27.7,0,41.6,0c2.1,0,2.9,0.6,2.8,2.8c-0.1,4.9,0,9.7,0,14.6c0,1.2,0,2.5-1.5,2.4c-1.5,0-1.5-1.3-1.5-2.5
				c0-4.6,0-9.3,0-14.1c-13.7,0-27.3,0-41.1,0C81.6,63.2,81.6,83.9,81.6,104.8z"/>
			<path d="M102.1,54.9c-4.9,0-9.9-0.1-14.8,0c-2.1,0-2.8-0.8-2.7-2.7c0.1-1.4,0.1-2.8,0-4.2c-0.1-1.7,0.7-2.3,2.4-2.3
				c10,0,20,0,30.1,0c1.7,0,2.6,0.6,2.5,2.4c-0.1,1.5-0.1,3.1,0,4.6c0.1,1.6-0.7,2.2-2.2,2.2C112.2,54.8,107.2,54.9,102.1,54.9z
				 M116.4,48.8c-9.7,0-19.2,0-28.6,0c0,1.1,0,2,0,2.9c9.6,0,19.1,0,28.6,0C116.4,50.7,116.4,49.8,116.4,48.8z"/>
			<path d="M100.1,67.4c0,2.3-0.1,4.6,0,6.9c0.1,1.7-0.5,2.4-2.3,2.4c-3.7-0.1-7.4-0.1-11.1,0c-1.5,0-2.2-0.6-2.2-2.1
				c0-4.8,0-9.6,0-14.4c0-1.4,0.6-2.1,2-2.1c3.8,0,7.7,0,11.5,0c1.5,0,2.1,0.7,2,2.2C100.1,62.7,100.1,65,100.1,67.4z M96.9,73.6
				c0-4.3,0-8.3,0-12.4c-3.1,0-6.1,0-9.1,0c0,4.2,0,8.3,0,12.4C90.9,73.6,93.9,73.6,96.9,73.6z"/>
			<path d="M93.9,95.4c-2.4,0-4.7,0-7.1,0c-1.1,0-2.3-0.3-2-1.6c0.1-0.6,1.3-1.3,2.1-1.3c4.8-0.1,9.6-0.1,14.4,0
				c0.7,0,1.3,0.9,2,1.4c-0.7,0.5-1.3,1.4-2,1.4C98.7,95.5,96.3,95.4,93.9,95.4z"/>
			<path d="M94.1,86.2c2.4,0,4.9-0.1,7.3,0.1c0.6,0,1.2,0.9,1.8,1.4c-0.6,0.5-1.2,1.4-1.7,1.5c-5,0.1-10,0.1-15,0
				c-0.6,0-1.2-1-1.8-1.5c0.6-0.5,1.3-1.3,1.9-1.3C89.1,86.1,91.6,86.2,94.1,86.2z"/>
			<path d="M94.1,79.9c2.4,0,4.9-0.1,7.3,0.1c0.6,0,1.2,0.9,1.8,1.4c-0.6,0.5-1.2,1.4-1.8,1.4c-4.9,0.1-9.9,0.1-14.8,0
				c-0.7,0-1.3-1-2-1.5c0.7-0.5,1.4-1.3,2.1-1.3C89.2,79.8,91.7,79.9,94.1,79.9z"/>
			<path d="M102.4,112.4c-1,0.8-1.6,1.5-2.2,1.6c-0.5,0-1.4-0.8-1.4-1.2c0.1-0.6,0.7-1.5,1.2-1.6C100.6,111,101.3,111.7,102.4,112.4
				z"/>
		</g>
	</g>
</g>
</svg>
