<?xml version="1.0" encoding="utf-8"?>
<!-- Generator: Adobe Illustrator 21.1.0, SVG Export Plug-In . SVG Version: 6.00 Build 0)  -->
<svg version="1.1" id="Layer_1" xmlns="http://www.w3.org/2000/svg" xmlns:xlink="http://www.w3.org/1999/xlink" x="0px" y="0px"
	 viewBox="0 0 210 190" style="enable-background:new 0 0 210 190;" xml:space="preserve">
<style type="text/css">
	.st0{fill:#FFFFFF;}
	.st1{clip-path:url(#SVGID_2_);}
	.st2{fill:#E8E8E8;}
	.st3{fill:#F95E08;}
</style>
<g>
	<path class="st0" d="M87.6,86.8c3.8,0.1,7.7,0.1,11.3-1.1c3.6-1.2,7-3.8,8.1-7.5c2.5-8.2-6.7-18-1.5-24.8c2.6-3.3,7.3-3.8,11.5-3.6
		c18.3,0.6,37,8.1,48.1,22.8s12.8,36.7,1.5,51.2c-6,7.7-14.9,12.7-24.1,16.2c-26,9.9-59.9,10.6-85.6-0.7
		c-18.4-8.1-43-31.4-16.1-47.8C54.1,83.4,72.8,86.4,87.6,86.8z"/>
	<path class="st0" d="M51.6,53.2C57.2,52,63,52,68.6,53.1c3.6,0.7,7.2,1.9,9.8,4.5s3.9,6.7,2.3,10c-1.4,2.8-4.4,4.3-7.4,5.2
		c-7.4,2.3-24.7,4.3-31-2.3C34.5,62.3,42.5,55.1,51.6,53.2z"/>
	<g>
		<g>
			<defs>
				<path id="SVGID_1_" d="M116,76.9v-4.4c0-4.7,0-9.4,0-14.1c0-2.7-0.4-3.1-3-3.1c-13.7,0-27.5,0-41.2,0c-2.4,0-2.8,0.4-2.8,2.8
					c0,21.7,0,43.5,0,65.2c0,2.4,0.4,2.8,2.8,2.8c13.7,0,27.5,0,41.2,0c2.5,0,2.9-0.4,2.9-2.9c0-1.1-0.1-2.3,0-3.4v-42
					C116,77.6,116,77.3,116,76.9z"/>
			</defs>
			<clipPath id="SVGID_2_">
				<use xlink:href="#SVGID_1_"  style="overflow:visible;"/>
			</clipPath>
			<g class="st1">
				
					<rect x="44.5" y="-3" transform="matrix(0.6433 0.7656 -0.7656 0.6433 57.2838 -16.3355)" class="st2" width="3.4" height="112.6"/>
				
					<rect x="50.1" y="1.5" transform="matrix(0.6433 0.7656 -0.7656 0.6433 62.7305 -19.065)" class="st2" width="3.4" height="112.6"/>
				
					<rect x="56" y="6.2" transform="matrix(0.6433 0.7656 -0.7656 0.6433 68.4424 -21.8657)" class="st2" width="3.4" height="112.6"/>
				
					<rect x="61.9" y="11" transform="matrix(0.6433 0.7656 -0.7656 0.6433 74.2426 -24.6903)" class="st2" width="3.4" height="112.6"/>
				
					<rect x="67.8" y="15.7" transform="matrix(0.6433 0.7656 -0.7656 0.6433 79.9545 -27.4911)" class="st2" width="3.4" height="112.6"/>
				
					<rect x="73.7" y="20.5" transform="matrix(0.6433 0.7656 -0.7656 0.6433 85.6663 -30.2918)" class="st2" width="3.4" height="112.6"/>
				
					<rect x="79.3" y="24.9" transform="matrix(0.6433 0.7656 -0.7656 0.6433 91.113 -33.0213)" class="st2" width="3.4" height="112.6"/>
				
					<rect x="85" y="29.4" transform="matrix(0.6433 0.7656 -0.7656 0.6433 96.5597 -35.7508)" class="st2" width="3.4" height="112.6"/>
				
					<rect x="90.6" y="33.9" transform="matrix(0.6433 0.7656 -0.7656 0.6433 102.0065 -38.4802)" class="st2" width="3.4" height="112.6"/>
				
					<rect x="96.5" y="38.6" transform="matrix(0.6433 0.7656 -0.7656 0.6433 107.7183 -41.281)" class="st2" width="3.4" height="112.6"/>
				
					<rect x="102.4" y="43.4" transform="matrix(0.6433 0.7656 -0.7656 0.6433 113.5185 -44.1055)" class="st2" width="3.4" height="112.6"/>
				
					<rect x="108.3" y="48.2" transform="matrix(0.6433 0.7656 -0.7656 0.6433 119.2304 -46.9063)" class="st2" width="3.4" height="112.6"/>
				
					<rect x="114.1" y="52.9" transform="matrix(0.6433 0.7656 -0.7656 0.6433 124.9422 -49.7071)" class="st2" width="3.4" height="112.6"/>
				
					<rect x="119.8" y="57.4" transform="matrix(0.6433 0.7656 -0.7656 0.6433 130.3889 -52.4365)" class="st2" width="3.4" height="112.6"/>
			</g>
		</g>
		<rect x="82.4" y="48.5" class="st0" width="43.5" height="64.4"/>
	</g>
	<g>
		<path class="st3" d="M124.4,120.5c-5.8,0-5.8,0-6.3-5.7c-13.2,0-26.1,0-39.2,0c0,6.6,0,13,0,19.4c16.8,0,33.4,0,49.9,0
			c0-4.6,0-9,0-13.6C127.3,120.5,125.8,120.5,124.4,120.5z"/>
		<path class="st0" d="M140.6,109.5c3,2.3,5.5,4.1,8.3,6.2c-2.5,1.5-4.9,2.8-7.5,4.3C141.1,116.5,140.9,113.4,140.6,109.5z"/>
		<path d="M98.3,62.4c2,0,4,0.1,6,0c1.5-0.1,2.3,0.6,2.3,2.1c0,4,0,8,0,12c0,1.6-0.6,2.4-2.4,2.3c-4-0.1-8-0.1-12,0
			c-1.5,0-2.2-0.5-2.2-2.1c0.1-4,0.1-8,0-12c0-1.7,0.6-2.4,2.3-2.3C94.3,62.4,96.3,62.4,98.3,62.4C98.3,62.4,98.3,62.4,98.3,62.4z
			 M92.9,75.9c3.7,0,7.2,0,10.7,0c0-3.6,0-7.1,0-10.5c-3.7,0-7.2,0-10.7,0C92.9,69,92.9,72.3,92.9,75.9z"/>
		<path d="M126.9,62.6c0,1,0,1.6,0,2.5c-5,0-9.9,0-14.9,0c0-0.8,0-1.6,0-2.5C117,62.6,121.8,62.6,126.9,62.6z"/>
		<path d="M126.9,69.3c0,0.9,0,1.6,0,2.5c-4.9,0-9.8,0-14.8,0c0-0.8,0-1.6,0-2.5C116.9,69.3,121.7,69.3,126.9,69.3z"/>
		<path d="M112,78.5c0-0.8,0-1.6,0-2.6c2.5,0,4.9,0,7.3,0c2.4,0,4.8,0,7.4,0c0.1,0.9,0.2,1.6,0.3,2.6C122,78.5,117.2,78.5,112,78.5z
			"/>
		<path class="st0" d="M86.2,58.4c0,16.6,0,32.9,0,49.4c11.8,0,23.3,0,35.2,0c0-4.1,0.1-7.9,0.1-11.8c0-3,1.2-2.8,9.5-2.8
			c0-11.8,0-23.3,0-34.9C115.9,58.4,101.1,58.4,86.2,58.4z M112,62.6c4.9,0,9.8,0,14.9,0c0,1,0,1.6,0,2.5c-5,0-9.9,0-14.9,0
			C112,64.2,112,63.5,112,62.6z M126.9,69.3c0,0.9,0,1.6,0,2.5c-4.9,0-9.8,0-14.8,0c0-0.8,0-1.6,0-2.5
			C116.9,69.3,121.7,69.3,126.9,69.3z M112,76c2.5,0,4.9,0,7.3,0c2.4,0,4.8,0,7.4,0c0.1,0.9,0.2,1.6,0.3,2.6c-5,0-9.9,0-15.1,0
			C112,77.7,112,77,112,76z M110.6,83.6c2.4,0,4.8,0,7.5,0c0,0.9,0,1.6,0,2.5c-2.5,0-4.9,0-7.5,0C110.6,85.3,110.6,84.5,110.6,83.6z
			 M90.1,91.2c0.7,0,1.5,0.1,2.5,0c0,1.7,0,3.3,0,5.1c-0.9,0-1.6,0-2.5,0C90.1,94.7,90.1,93.1,90.1,91.2z M92.2,78.8
			c-1.5,0-2.2-0.5-2.2-2.1c0.1-4,0.1-8,0-12c0-1.7,0.6-2.4,2.3-2.3c2,0.1,4,0,6,0c0,0,0,0,0,0c2,0,4,0.1,6,0
			c1.5-0.1,2.3,0.6,2.3,2.1c0,4,0,8,0,12c0,1.6-0.6,2.4-2.4,2.3C100.2,78.7,96.2,78.7,92.2,78.8z M106.6,83.5c0,0.9,0,1.6,0,2.5
			c-2.5,0-4.9,0-7.5,0c0-0.8,0-1.6,0-2.5C101.6,83.5,104,83.5,106.6,83.5z M99,104.1c0-0.8,0-1.6,0-2.5c2.5,0,5,0,7.6,0
			c0,0.8,0.1,1.5,0.1,2.5C104.1,104.1,101.7,104.1,99,104.1z M110.5,104.2c0-0.8,0-1.6,0-2.5c2.5,0,4.9,0,7.6,0
			c0,0.8,0.1,1.6,0.1,2.5C115.5,104.2,113.1,104.2,110.5,104.2z"/>
		<path d="M92.6,97c-0.9,0-1.6,0-2.5,0c0-1.7,0-3.5,0-5.4c0.7,0,1.5,0.1,2.5,0C92.6,93.4,92.6,95,92.6,97z"/>
		<path class="st0" d="M92.9,75.9c0-3.6,0-6.9,0-10.5c3.5,0,7,0,10.7,0c0,3.5,0,6.9,0,10.5C100,75.9,96.6,75.9,92.9,75.9z"/>
		<path d="M108.3,114.1c-3,0.1-5.3,2.5-5.3,5.6c0.1,3.1,2.6,5.6,5.7,5.5c3.1-0.1,5.5-2.6,5.4-5.8C114,116.3,111.6,114,108.3,114.1z
			 M108.7,122.3c-1.5,0-2.7-1.1-2.7-2.6c0-1.5,1.1-2.6,2.5-2.7c1.5-0.1,2.7,1,2.8,2.5C111.3,121,110.1,122.2,108.7,122.3z"/>
		<path class="st3" d="M77.3,46.4c0,4.6,0,9,0,13.6c16.8,0,33.2,0,49.7,0c0-4.7,0-9.2,0-13.6C110.3,46.4,93.8,46.4,77.3,46.4z"/>
		<rect x="104.6" y="48.8" width="7.4" height="2.8"/>
		<path d="M133.8,93.4c3.9,0,7.4,0.1,10.9,0c2-0.1,2.8,0.7,2.8,2.7c-0.1,3.9,0.1,7.8-0.1,11.7l-0.2,2.7c0.8,0.6,4,3,4.6,3.5
			c1.3,1.1,1.4,2.1-0.2,3c-1.2,0.7-2.4,1.5-3.8,2.3c1.3,2.4,2.7,4.7,3.9,7c0.4,0.7,0.8,2.2,0,2.7c-0.7,0.5-1.9-0.6-2.3-1.3
			c-1.4-2.1-2.6-4.4-4-6.8c-1.5,0.9-2.8,1.7-4.2,2.5c-1.7,1-2.6,0.5-2.8-1.5c-0.1-1.9-0.3-3.8-0.5-5.8c-1.4,0-2.7,0-4.3,0
			c0,3.9-0.1,7.8,0,11.7c0.1,2.4-0.7,3.2-3.1,3.2c-14.8-0.1-29.6-0.1-44.4,0c-2.2,0-3.2-0.5-3.2-3.1c0.1-27.6,0.1-55.2,0-82.7
			c0-2.3,0.7-3,3-3c14.9,0.1,29.8,0.1,44.6,0c2.3,0,3,0.8,3,3c-0.1,15,0,29.9,0,44.9C133.8,91.3,133.8,92.2,133.8,93.4z
			 M121.4,107.8c0-4.1,0.1-7.9,0.1-11.8c0-3.3,2-2.8,9.5-2.8c0-11.8,0-23.3,0-34.9c-15,0-29.8,0-44.7,0c0,16.6,0,32.9,0,49.4
			C98,107.8,109.5,107.8,121.4,107.8z M121.2,110.9c-11.7,0-23.3,0-35,0c0,5.9,0,11.6,0,17.3c15,0,29.8,0,44.6,0c0-4.1,0-8,0-12.2
			c-1.4,0-2.7,0-4,0C121.6,116,121.6,116,121.2,110.9z M86.2,55.1c15.1,0,29.9,0,44.8,0c0-3.3,0-6.5,0-9.6c-15,0-29.8,0-44.8,0
			C86.2,48.7,86.2,51.8,86.2,55.1z M144.3,96.3c-6.7,0-13.2,0-19.9,0c0,5.7,0,11.2,0,16.8c4.5,0,8.9,0,13.5,0
			c-0.2-2.2-0.4-4.1-0.4-6.1c0-0.7-0.1-1.6,0.8-2c0.8-0.3,1.3,0.1,1.8,0.5c1.3,0.8,2.5,1.8,4.1,3
			C144.3,104.2,144.3,100.5,144.3,96.3z M140.6,109.5c0.3,3.9,0.5,7,0.8,10.5c2.6-1.5,5-2.9,7.5-4.3
			C146.1,113.6,143.6,111.8,140.6,109.5z"/>
		<path d="M92.6,104.1c-0.9,0-1.6,0-2.5,0c0-1.7,0-3.5,0-5.4c0.7,0,1.5,0.1,2.5,0C92.6,100.5,92.6,102.1,92.6,104.1z"/>
		<path d="M92.6,88.9c-0.9,0-1.6,0-2.5,0c0-1.7,0-3.5,0-5.4c0.7,0,1.5,0.1,2.5,0C92.6,85.3,92.6,86.9,92.6,88.9z"/>
		<path d="M124.2,88.9c-0.9,0-1.6,0-2.5,0c0-1.7,0-3.5,0-5.4c0.7,0,1.5,0.1,2.5,0C124.2,85.4,124.2,87,124.2,88.9z"/>
		<path d="M111.2,83.6c0,0.9,0,1.6,0,2.5c-2.5,0-4.9,0-7.5,0c0-0.8,0-1.6,0-2.5C106.1,83.6,108.5,83.6,111.2,83.6z"/>
		<path d="M99.7,83.5c0,0.9,0,1.6,0,2.5c-2.5,0-4.9,0-7.5,0c0-0.8,0-1.6,0-2.5C94.7,83.5,97.2,83.5,99.7,83.5z"/>
		<path d="M121.8,83.6c0,0.9,0,1.6,0,2.5c-2.5,0-4.9,0-7.5,0c0-0.8,0-1.6,0-2.5C116.7,83.6,119.1,83.6,121.8,83.6z"/>
		<path d="M111.3,101.6c0,0.9,0,1.6,0,2.5c-2.5,0-4.9,0-7.5,0c0-0.8,0-1.6,0-2.5C106.2,101.6,108.6,101.6,111.3,101.6z"/>
		<path d="M99.8,101.5c0,0.9,0,1.6,0,2.5c-2.5,0-4.9,0-7.5,0c0-0.8,0-1.6,0-2.5C94.8,101.5,97.3,101.5,99.8,101.5z"/>
		<path d="M121.9,101.6c0,0.9,0,1.6,0,2.5c-2.5,0-4.9,0-7.5,0c0-0.8,0-1.6,0-2.5C116.8,101.6,119.2,101.6,121.9,101.6z"/>
	</g>
</g>
</svg>
