<?xml version="1.0" encoding="utf-8"?>
<!-- Generator: Adobe Illustrator 21.1.0, SVG Export Plug-In . SVG Version: 6.00 Build 0)  -->
<svg version="1.1" id="Layer_1" xmlns="http://www.w3.org/2000/svg" xmlns:xlink="http://www.w3.org/1999/xlink" x="0px" y="0px"
	 viewBox="0 0 112 100" style="enable-background:new 0 0 112 100;" xml:space="preserve">
<style type="text/css">
	.st0{fill:#FFFFFF;}
</style>
<path class="st0" d="M104.1,23.9c-0.8,1.1-1.5,2.1-2.2,3c-2.1,2.5-4.3,4.7-6.9,6.6c-0.5,0.4-0.7,0.7-0.7,1.4
	c0.3,13.1-3.5,25-11.2,35.7c-6.1,8.5-14,14.8-23.7,18.7c-7.6,3-15.5,4.3-23.6,4c-7.4-0.3-14.6-1.9-21.3-5c-2.4-1.1-4.6-2.4-6.9-3.7
	c10.7,0.9,20.3-1.8,29-8.3c-9.1-0.8-15.2-5.3-18.5-13.9c3.1,0.5,5.9,0.4,8.9-0.4c-4.7-1.1-8.5-3.4-11.4-7.1
	c-2.9-3.6-4.4-7.8-4.4-12.7c2.8,1.4,5.6,2.3,8.7,2.3c-4.8-3.6-7.7-8.3-8.4-14.2C11,26,11.8,22,14,18.1
	c10.7,12.6,24.3,19.6,40.9,20.7c-0.1-1.2-0.3-2.3-0.3-3.5c-0.3-4.4,0.8-8.6,3.3-12.2c4.6-6.5,11-9.5,19-8.6
	c4.4,0.5,8.2,2.4,11.4,5.5c0.4,0.4,0.8,0.6,1.5,0.4c3.8-0.9,7.4-2.2,10.8-4.1c0.3-0.1,0.5-0.3,0.9-0.5c-0.7,2.4-1.8,4.3-3.2,6.1
	c-1.4,1.8-3.1,3.3-5,4.6c0,0.1,0.1,0.2,0.1,0.2c1.8-0.4,3.6-0.7,5.4-1.2C100.5,25.2,102.2,24.5,104.1,23.9z"/>
</svg>
