<?xml version="1.0" encoding="utf-8"?>
<!-- Generator: Adobe Illustrator 21.1.0, SVG Export Plug-In . SVG Version: 6.00 Build 0)  -->
<svg version="1.1" id="Layer_1" xmlns="http://www.w3.org/2000/svg" xmlns:xlink="http://www.w3.org/1999/xlink" x="0px" y="0px"
	 viewBox="0 0 210 190" style="enable-background:new 0 0 210 190;" xml:space="preserve">
<style type="text/css">
	.st0{fill:#FFFFFF;}
	.st1{fill:#F4F4F4;}
	.st2{fill:#F95E08;}
</style>
<g>
	<path class="st0" d="M119.9,82.4c-4.5,0.1-9,0.2-13.3-1.2c-4.3-1.4-8.2-4.5-9.5-8.7c-2.9-9.6,7.9-21.2,1.7-29.2
		c-3-3.9-8.6-4.4-13.5-4.3c-21.5,0.7-43.5,9.6-56.5,26.7s-15,43-1.8,60.1c7.1,9.1,17.5,14.9,28.3,19c30.6,11.6,70.3,12.5,100.5-0.8
		c21.6-9.5,50.4-36.9,19-56.1C159.2,78.3,137.3,81.9,119.9,82.4z"/>
	<path class="st0" d="M164.6,48c-5.9-1.2-12-1.3-18-0.2c-3.8,0.7-7.7,2-10.4,4.7c-2.8,2.7-4.1,7.1-2.4,10.6c1.5,3,4.7,4.6,7.9,5.5
		c7.9,2.5,26.2,4.6,32.9-2.4C182.8,57.6,174.3,50,164.6,48z"/>
	<g>
		<path class="st1" d="M90.7,108c0-1.3-0.2-2.6,0.1-3.8c0.1-0.7,1-1.2,1.5-1.8c0.4,0.6,1.2,1.2,1.3,1.8c0.7,5.7-0.7,10.8-4.6,15.1
			c-1.6,1.8-3.6,3.5-2.6,6.5c-5.1,0-9.9,0-14.3,0c-0.9-2.9-1.5-5.7-2.6-8.2c-2-4.5-2.8-9.2-2.5-14.1c0.2-3.6,0-7.3,0.1-10.9
			c0-0.7,1-1.4,1.5-2c0.5,0.7,1.3,1.3,1.3,2c0.2,2.6,0.1,5.3,0.1,8.1c1,0,1.8,0,3,0c0-3.2,0-6.5,0-9.8c0-1.3-0.6-3.3,1.6-3.2
			c2,0.1,1.3,2,1.3,3.2c0.1,3.2,0,6.4,0,9.8c1,0,1.9,0,3,0c0-3.9,0-7.8,0-11.7c0-0.8-0.2-1.6,0-2.3c0.3-0.8,1-1.4,1.5-2
			c0.5,0.7,1.3,1.3,1.3,2c0.1,3.6,0,7.3,0,10.9c0,1,0,1.9,0,3.1c1,0,1.8,0,3,0c0-3,0-6,0-9.1c0-0.6,0-1.1,0-1.7
			c0-1.1,0.1-2.4,1.5-2.1c0.6,0.1,1.3,1.4,1.3,2.1c0.1,5.5,0.1,11.1,0.1,16.6c0,0.5,0,1,0.1,1.6C88.8,108,89.6,108,90.7,108z"/>
		<path class="st1" d="M126.2,100.7c1.1,0,1.9,0,3,0c0-1.5-0.1-3.1,0.1-4.6c0.1-0.7,0.8-1.4,1.3-2c0.5,0.7,1.4,1.3,1.5,2.1
			c0.2,1.4,0.1,2.9,0.1,4.5c1,0,1.9,0,3,0c0-0.9-0.2-1.7,0.1-2.5c0.2-0.6,0.9-1.1,1.4-1.7c0.5,0.6,1.4,1.1,1.4,1.7
			c0.2,1.9-0.1,3.8,0.1,5.7c0.4,4.9-0.7,9.4-2.5,13.9c-1.1,2.5-1.7,5.3-2.6,8.2c-4.3,0-9.1,0-14.2,0c0.9-3.2-1.2-5-3-6.9
			c-3.8-4.3-4.9-9.3-4.3-14.8c0.1-0.6,0.9-1.2,1.4-1.7c0.5,0.6,1.3,1,1.5,1.7c0.2,1.2,0.1,2.5,0.1,3.9c1,0,1.9,0,3,0c0-2,0-4,0-5.9
			c0-5,0-10.1,0-15.1c0-1.1,0-2.3,1.5-2.3c1.4,0,1.5,1.2,1.5,2.3c0,4.5,0,9.1,0,13.7c1,0,1.9,0,3,0c0-1.6-0.1-3.1,0.1-4.6
			c0.1-0.7,0.9-1.3,1.4-1.9c0.5,0.7,1.3,1.3,1.4,2C126.4,97.6,126.2,99,126.2,100.7z"/>
		<path class="st2" d="M142.7,96.4c-3.5,0-6.8,0-10.1,0c-0.4,0-0.8-0.4-1.1-0.7c-1.6-1.7-3.4-2.1-5.5-1.3c-0.5,0.2-1.2,0.2-1.7,0.1
			c-1.1-0.2-2.3-0.5-3.7-0.9c0-1.2,0-2.7,0-4.2c-0.1-3.1-1.8-5.1-4.4-5.1c-2.7,0-4.4,1.9-4.4,5c0,2.2,0,4.3,0,6.7
			c-7.9,0-15.6,0-23.8,0c0-1,0-2.1,0-3.2c0-4.2-1.7-5.7-5.8-5.4c-2-2.8-4.1-4-6-2.7c-2.2,1.5-4.2,2.9-6.9,3.3
			c-0.4,0.1-0.8,0.6-1.1,1c-0.5,1-1.2,1.4-2.4,1.3c-2.8-0.1-4.1,1.6-4.6,5.7c-1.3,0-2.6,0-4.1,0c0-10.7,0-21.5,0-32.4
			c28.4,0,56.9,0,85.6,0C142.7,74.5,142.7,85.2,142.7,96.4z M107.1,90.5c-4.9,0-9.8,0-14.5,0c0,1,0,1.8,0,2.6c4.9,0,9.7,0,14.5,0
			C107.1,92.1,107.1,91.3,107.1,90.5z M83.5,78.5c-1,0-1.8,0-2.6,0c0,1,0,1.8,0,2.7c0.9,0,1.7,0,2.6,0
			C83.5,80.3,83.5,79.5,83.5,78.5z M86.7,78.5c0,1,0,1.9,0,2.8c1,0,1.8-0.1,2.6-0.1c0-1,0-1.8,0-2.7C88.5,78.5,87.7,78.5,86.7,78.5z
			 M92.6,81.2c1,0,1.8,0,2.7,0c0-1,0-1.8,0-2.7c-1,0-1.8,0-2.7,0C92.6,79.4,92.6,80.2,92.6,81.2z M101.2,81.2c0-1,0-1.8,0-2.7
			c-1,0-1.9,0-2.7,0c0,1,0,1.8,0,2.7C99.4,81.2,100.2,81.2,101.2,81.2z M107.1,78.6c-1,0-1.9,0-2.7,0c0,1,0,1.8,0,2.7
			c0.9,0,1.8,0,2.7,0C107.1,80.3,107.1,79.5,107.1,78.6z M112.9,81.2c0-1,0-1.9,0-2.7c-1,0-1.8,0-2.6,0c0,1,0,1.8,0,2.7
			C111.2,81.2,112,81.2,112.9,81.2z M116.3,78.5c0,0.9,0,1.8,0,2.7c0.9,0,1.7,0,2.6,0c0-1,0-1.8,0-2.7
			C118,78.5,117.2,78.5,116.3,78.5z M92.3,87.2c0-1.1,0-1.9,0-2.7c-1,0-1.8,0-2.6,0c0,1,0,1.8,0,2.7C90.6,87.2,91.4,87.2,92.3,87.2z
			 M95.5,84.4c0,1,0,1.8,0,2.7c1,0,1.8,0,2.7,0c0-1,0-1.8,0-2.7C97.2,84.4,96.4,84.4,95.5,84.4z M104.2,87.2c0-1,0-1.8,0-2.7
			c-1,0-1.8,0-2.7,0c0,1,0,1.8,0,2.7C102.4,87.2,103.2,87.2,104.2,87.2z M110,84.5c-1,0-1.8,0-2.7,0c0,1,0,1.8,0,2.6
			c1,0,1.8,0,2.7,0C110,86.1,110,85.3,110,84.5z M92.6,69.4c1,0,1.9,0,2.7,0c0-1,0-1.9,0-2.7c-1,0-1.8,0-2.7,0
			C92.6,67.6,92.6,68.4,92.6,69.4z M86.7,66.7c0,1,0,1.8,0,2.7c1,0,1.8,0,2.7,0c0-1,0-1.8,0-2.7C88.5,66.7,87.6,66.7,86.7,66.7z
			 M83.4,69.4c0-1,0-1.8,0-2.7c-1,0-1.8,0-2.6,0c0,1,0,1.8,0,2.7C81.7,69.4,82.6,69.4,83.4,69.4z M74.9,66.7c0,1,0,1.8,0,2.7
			c0.9,0,1.7,0,2.6,0c0-1,0-1.8,0-2.7C76.6,66.7,75.9,66.7,74.9,66.7z M110.3,69.3c0.9,0,1.8,0,2.7,0c0-1,0-1.8,0-2.6
			c-1,0-1.8,0-2.7,0C110.3,67.6,110.3,68.4,110.3,69.3z M118.9,66.7c-1,0-1.8,0-2.7,0c0,0.9,0,1.7,0,2.7c0.9,0,1.8,0,2.7,0
			C118.9,68.4,118.9,67.6,118.9,66.7z M124.8,66.7c-1,0-1.8,0-2.7,0c0,1,0,1.7,0,2.6c0.9,0,1.8,0,2.7,0
			C124.8,68.4,124.8,67.6,124.8,66.7z M130.7,66.7c-1,0-1.8,0-2.6,0c0,1,0,1.8,0,2.7c0.9,0,1.7,0,2.6,0
			C130.7,68.5,130.7,67.7,130.7,66.7z M104.3,69.4c1,0,1.9,0,2.8,0c0-1,0-1.8,0-2.7c-1,0-1.9,0-2.8,0
			C104.3,67.7,104.3,68.4,104.3,69.4z M98.5,66.7c0,1,0,1.9,0,2.7c1,0,1.8,0,2.7,0c0-1,0-1.8,0-2.7C100.2,66.7,99.4,66.7,98.5,66.7z
			 M77.8,75.2c1,0,1.8,0,2.6,0c0-1,0-1.8,0-2.6c-0.9,0-1.7,0-2.6,0C77.8,73.5,77.8,74.3,77.8,75.2z M86.5,72.7c-0.9,0-1.8,0-2.7,0
			c0,0.9,0,1.8,0,2.6c1,0,1.8,0,2.7,0C86.5,74.4,86.5,73.6,86.5,72.7z M92.3,75.3c0-1,0-1.8,0-2.7c-1,0-1.8,0-2.7,0c0,1,0,1.8,0,2.7
			C90.6,75.3,91.4,75.3,92.3,75.3z M98.2,75.3c0-1,0-1.8,0-2.7c-1,0-1.8,0-2.7,0c0,1,0,1.8,0,2.7C96.5,75.3,97.3,75.3,98.2,75.3z
			 M119.2,72.6c0,1.1,0,1.9,0,2.7c0.9,0,1.7,0,2.6,0c0-1,0-1.8,0-2.7C120.9,72.6,120.1,72.6,119.2,72.6z M115.9,75.3
			c0-1.1,0-1.9,0-2.9c-1,0-1.8,0.1-2.6,0.1c0,1,0,1.8,0,2.7C114.2,75.3,115,75.3,115.9,75.3z M104.2,72.6c-1,0-1.9,0-2.7,0
			c0,1,0,1.8,0,2.7c1,0,1.8,0,2.7,0C104.2,74.3,104.2,73.5,104.2,72.6z M107.3,75.3c1.1,0,1.9,0,2.7,0c0-1,0-1.8,0-2.6
			c-1,0-1.8,0-2.7,0C107.3,73.6,107.3,74.4,107.3,75.3z M127.8,72.6c-1,0-1.7,0-2.6,0c0,1,0,1.8,0,2.7c0.9,0,1.7,0,2.6,0
			C127.8,74.3,127.8,73.5,127.8,72.6z M131.1,75.3c1,0,1.8,0,2.5,0c0-1,0-1.9,0-2.7c-0.9,0-1.7,0-2.5,0
			C131.1,73.5,131.1,74.3,131.1,75.3z M133.7,84.5c-1,0-1.8,0-2.6,0c0,1,0,1.8,0,2.7c0.9,0,1.7,0,2.6,0
			C133.7,86.2,133.7,85.4,133.7,84.5z M125.2,84.4c0,1,0,1.8,0,2.7c0.9,0,1.7,0,2.5,0c0-1,0-1.8,0-2.7
			C126.8,84.4,126.1,84.4,125.2,84.4z M71.5,69.4c0-1,0-1.8,0-2.7c-0.9,0-1.7,0-2.5,0c0,1,0,1.9,0,2.7
			C69.9,69.4,70.7,69.4,71.5,69.4z M66,75.4c1,0,1.8-0.1,2.6-0.1c0-1,0-1.8,0-2.7c-0.9,0-1.7,0-2.6,0C66,73.5,66,74.3,66,75.4z
			 M74.5,75.3c0-1.1,0-1.9,0-2.7c-0.9,0-1.7,0-2.5,0c0,1,0,1.9,0,2.7C72.9,75.3,73.6,75.3,74.5,75.3z M68.6,84.5c-1,0-1.7,0-2.6,0
			c0,1,0,1.8,0,2.6c0.9,0,1.7,0,2.6,0C68.6,86.2,68.6,85.5,68.6,84.5z M71.5,81.2c0-1.1,0-1.9,0-2.7c-0.9,0-1.7,0-2.5,0
			c0,1,0,1.8,0,2.7C69.9,81.2,70.7,81.2,71.5,81.2z M130.7,81.2c0-1,0-1.9,0-2.7c-0.9,0-1.7,0-2.5,0c0,1,0,1.8,0,2.7
			C129,81.2,129.8,81.2,130.7,81.2z M124.8,78.4c-1.1,0.1-1.9,0.1-2.6,0.1c0,1.1,0,1.9,0,2.7c1,0,1.8,0,2.6,0
			C124.8,80.3,124.8,79.5,124.8,78.4z M77.5,78.5c-1,0-1.8,0-2.6,0c0,1,0,1.8,0,2.8c1,0,1.8-0.1,2.6-0.1
			C77.5,80.3,77.5,79.5,77.5,78.5z M134.1,66.6c0,1.1,0,1.9,0,2.8c0.9,0,1.7,0,2.5,0c0-1,0-1.9,0-2.8
			C135.7,66.6,135,66.6,134.1,66.6z M134,81.2c0.9,0,1.7,0,2.5,0c0-1,0-1.8,0-2.7c-0.9,0-1.7,0-2.5,0C134,79.5,134,80.3,134,81.2z
			 M65.6,78.5c-1,0-1.7,0-2.5,0c0,1,0,1.8,0,2.7c0.9,0,1.7,0,2.5,0C65.6,80.3,65.6,79.5,65.6,78.5z M63.1,69.4c0.9,0,1.7,0,2.5,0
			c0-1,0-1.8,0-2.7c-0.9,0-1.6,0-2.5,0C63.1,67.6,63.1,68.4,63.1,69.4z M137,84.4c0,1,0,1.8,0,2.7c0.9,0,1.7,0,2.5,0
			c0-0.9,0-1.8,0-2.7C138.7,84.4,138,84.4,137,84.4z M60.1,75.2c1,0,1.8,0,2.5,0c0-1,0-1.8,0-2.6c-0.9,0-1.6,0-2.5,0
			C60.1,73.5,60.1,74.3,60.1,75.2z M60.1,84.4c0,1,0,1.8,0,2.7c0.9,0,1.7,0,2.5,0c0-1,0-1.8,0-2.7C61.8,84.4,61,84.4,60.1,84.4z
			 M137,72.6c0,1,0,1.8,0,2.7c0.9,0,1.7,0,2.5,0c0-1,0-1.8,0-2.7C138.7,72.6,138,72.6,137,72.6z"/>
		<path d="M90.6,137.8c-1,0-2,0-2.9,0c0-2.9,0-5.8,0-8.7c-6,0-11.7,0-17.7,0c0,3,0,5.9,0,8.7c-1,0-2,0-2.9,0c0-2.7,0-5.3,0-8
			c0-0.7-0.1-1.6,0.3-2c2.1-2.4,1.2-4.8,0.1-7.2c-2.8-6-4-12.2-3.4-18.7c0.2-1.8,0-3.6,0-5.4c-1.2,0-2,0-2.9,0
			c-3.7,0-4.5-0.7-4.5-4.4c0-9.9,0-19.8,0-29.7c0-3.7,0.7-4.5,4.4-4.5c12.5,0,25,0,37.4,0c0.8,0,1.6,0,2.4,0c0.4-2.2-0.3-3-2.3-3
			c-2.4,0.1-4.8,0-7.1,0c-3.3,0-5.2-1.7-5.1-4.5c0-2.7,2-4.4,5.1-4.4c5.2,0,10.4,0,15.6,0c2.9,0,3-0.1,3-2.9c1,0,2,0,2.9,0
			c0.1,4.4-1.4,5.9-5.8,5.9c-5.1,0-10.2,0-15.4,0c-1.1,0-2.3,0-2.4,1.4C89.3,52,90.5,52,91.6,52c2.6,0,5.2,0,7.8,0
			c2.9,0.1,4.5,1.7,4.7,4.6c0,0.4,0.1,0.8,0.1,1.3c3.2,0,6.3,0,9.4,0c10.4,0,20.8,0,31.1,0c2.5,0,3.7,0.9,3.7,3
			c0.1,10.8,0,21.6,0,32.4c0,1.9-1.1,2.9-3,3c-1.4,0.1-2.8,0-4.1,0c-0.1,0.4-0.2,0.6-0.2,0.8c0.6,8.8,0,17.3-4.2,25.3
			c-0.1,0.2-0.3,0.5-0.2,0.8c0,1-0.3,2.4,0.2,3c1.3,1.5,1.2,3.1,1.2,4.7c0,2.2,0,4.5,0,6.7c-1,0-2,0-2.9,0c0-2.9,0-5.8,0-8.7
			c-6.1,0-11.9,0-17.7,0c0,3,0,5.9,0,8.7c-1,0-2,0-2.9,0c0-3-0.1-6-0.1-9c0-0.5,0.2-1,0.4-1.4c1.5-2.7,1.6-3.2-0.5-5.4
			c-4.9-5.3-6.6-11.5-5.8-18.6c0.3-2.3,1.8-3.8,4.1-3.9c0.5,0,1.1-0.1,1.6-0.1c0-1,0-1.9,0-2.8c-7.9,0-15.6,0-23.4,0
			c0,1,0,1.9,0,2.8c3.7,0.2,5.4,1.2,5.7,3.6c0.5,5.8,0.3,11.5-3.7,16.3c-0.9,1.1-1.8,2.3-2.7,3.5c-1.1,1.4-1.2,2.7-0.2,4.2
			c0.4,0.6,0.8,1.4,0.8,2.1C90.7,132,90.6,134.9,90.6,137.8z M145.4,93.6c0-11.1,0-21.8,0-32.6c-28.6,0-57.1,0-85.6,0
			c0,10.9,0,21.6,0,32.4c1.5,0,2.8,0,4.1,0c0.5-4.1,1.8-5.9,4.6-5.7c1.3,0.1,1.9-0.3,2.4-1.3c0.2-0.4,0.7-0.9,1.1-1
			c2.6-0.4,4.7-1.9,6.9-3.3c1.9-1.3,4-0.1,6,2.7c4.1-0.3,5.8,1.2,5.8,5.4c0,1.1,0,2.2,0,3.2c8.1,0,15.9,0,23.8,0c0-2.3,0-4.5,0-6.7
			c0-3.1,1.8-5,4.4-5c2.6,0,4.4,2,4.4,5.1c0,1.5,0,2.9,0,4.2c1.4,0.3,2.5,0.7,3.7,0.9c0.6,0.1,1.2,0.1,1.7-0.1
			c2.2-0.9,4-0.5,5.5,1.3c0.3,0.3,0.7,0.7,1.1,0.7C138.6,93.7,141.9,93.6,145.4,93.6z M90.7,108c-1.1,0-1.9,0-2.9,0
			c0-0.6-0.1-1.1-0.1-1.6c0-5.5,0-11.1-0.1-16.6c0-0.7-0.8-2-1.3-2.1c-1.4-0.2-1.5,1-1.5,2.1c0,0.6,0,1.1,0,1.7c0,3.1,0,6.1,0,9.1
			c-1.2,0-2.1,0-3,0c0-1.1,0-2.1,0-3.1c0-3.6,0.1-7.3,0-10.9c0-0.7-0.9-1.3-1.3-2c-0.5,0.7-1.2,1.3-1.5,2c-0.3,0.7,0,1.5,0,2.3
			c0,3.9,0,7.8,0,11.7c-1.1,0-2,0-3,0c0-3.4,0.1-6.6,0-9.8c0-1.2,0.7-3.1-1.3-3.2c-2.2-0.1-1.5,1.9-1.6,3.2c-0.1,3.3,0,6.5,0,9.8
			c-1.1,0-2,0-3,0c0-2.8,0.1-5.5-0.1-8.1c0-0.7-0.9-1.3-1.3-2c-0.5,0.7-1.4,1.3-1.5,2c-0.2,3.6,0.1,7.3-0.1,10.9
			c-0.3,4.9,0.5,9.5,2.5,14.1c1.1,2.6,1.7,5.4,2.6,8.2c4.4,0,9.2,0,14.3,0c-1-3,0.9-4.7,2.6-6.5c4-4.3,5.3-9.4,4.6-15.1
			c-0.1-0.6-0.8-1.2-1.3-1.8c-0.5,0.6-1.4,1.1-1.5,1.8C90.5,105.4,90.7,106.7,90.7,108z M126.2,100.7c0-1.7,0.2-3.2-0.1-4.6
			c-0.1-0.7-0.9-1.3-1.4-2c-0.5,0.6-1.3,1.2-1.4,1.9c-0.2,1.5-0.1,3-0.1,4.6c-1.1,0-2,0-3,0c0-4.7,0-9.2,0-13.7
			c0-1.1-0.1-2.3-1.5-2.3c-1.5,0-1.5,1.2-1.5,2.3c0,5,0,10.1,0,15.1c0,1.9,0,3.9,0,5.9c-1.1,0-1.9,0-3,0c0-1.4,0.2-2.7-0.1-3.9
			c-0.1-0.6-1-1.1-1.5-1.7c-0.5,0.6-1.3,1.1-1.4,1.7c-0.7,5.5,0.5,10.6,4.3,14.8c1.7,1.9,3.9,3.7,3,6.9c5.1,0,9.9,0,14.2,0
			c0.9-2.9,1.5-5.6,2.6-8.2c1.9-4.5,3-9,2.5-13.9c-0.2-1.9,0.1-3.8-0.1-5.7c-0.1-0.6-0.9-1.1-1.4-1.7c-0.5,0.6-1.2,1-1.4,1.7
			c-0.2,0.7-0.1,1.6-0.1,2.5c-1.1,0-2,0-3,0c0-1.6,0.2-3.1-0.1-4.5c-0.1-0.8-1-1.4-1.5-2.1c-0.5,0.7-1.2,1.3-1.3,2
			c-0.2,1.5-0.1,3-0.1,4.6C128.1,100.7,127.3,100.7,126.2,100.7z"/>
		<path class="st0" d="M117.5,137.8c0-2.8,0-5.7,0-8.7c5.7,0,11.5,0,17.7,0c0,2.9,0,5.8,0,8.7C129.3,137.8,123.4,137.8,117.5,137.8z
			"/>
		<path class="st0" d="M70,137.8c0-2.9,0-5.7,0-8.7c5.9,0,11.7,0,17.7,0c0,2.9,0,5.8,0,8.7C81.7,137.8,75.8,137.8,70,137.8z"/>
		<path d="M109.8,87.7c0,0.8,0,1.6,0,2.6c-4.8,0-9.6,0-14.5,0c0-0.8,0-1.6,0-2.6C100.1,87.7,104.9,87.7,109.8,87.7z"/>
		<path d="M86.2,75.8c0,1,0,1.7,0,2.7c-0.9,0-1.7,0-2.6,0c0-0.8,0-1.7,0-2.7C84.4,75.8,85.1,75.8,86.2,75.8z"/>
		<path d="M89.5,75.8c0.9,0,1.7,0,2.6,0c0,0.9,0,1.7,0,2.7c-0.8,0-1.6,0.1-2.6,0.1C89.5,77.7,89.5,76.8,89.5,75.8z"/>
		<path d="M95.3,78.5c0-1,0-1.8,0-2.7c0.9,0,1.7,0,2.7,0c0,0.9,0,1.7,0,2.7C97.2,78.5,96.3,78.5,95.3,78.5z"/>
		<path d="M103.9,78.5c-1,0-1.8,0-2.7,0c0-0.9,0-1.7,0-2.7c0.9,0,1.7,0,2.7,0C103.9,76.7,103.9,77.5,103.9,78.5z"/>
		<path d="M109.8,75.8c0,0.9,0,1.8,0,2.7c-0.9,0-1.8,0-2.7,0c0-0.9,0-1.7,0-2.7C108,75.8,108.8,75.8,109.8,75.8z"/>
		<path d="M115.7,78.5c-0.9,0-1.7,0-2.6,0c0-0.9,0-1.7,0-2.7c0.8,0,1.6,0,2.6,0C115.7,76.6,115.7,77.5,115.7,78.5z"/>
		<path d="M119,75.8c0.9,0,1.7,0,2.6,0c0,0.9,0,1.8,0,2.7c-0.9,0-1.7,0-2.6,0C119,77.6,119,76.7,119,75.8z"/>
		<path d="M95,84.4c-0.9,0-1.7,0-2.6,0c0-0.9,0-1.7,0-2.7c0.9,0,1.7,0,2.6,0C95,82.6,95,83.4,95,84.4z"/>
		<path d="M98.3,81.7c0.9,0,1.7,0,2.7,0c0,0.9,0,1.7,0,2.7c-0.8,0-1.7,0-2.7,0C98.3,83.5,98.3,82.7,98.3,81.7z"/>
		<path d="M106.9,84.5c-1,0-1.8,0-2.7,0c0-0.9,0-1.8,0-2.7c0.9,0,1.8,0,2.7,0C106.9,82.6,106.9,83.4,106.9,84.5z"/>
		<path d="M112.8,81.8c0,0.9,0,1.7,0,2.6c-0.9,0-1.7,0-2.7,0c0-0.8,0-1.7,0-2.6C110.9,81.8,111.8,81.8,112.8,81.8z"/>
		<path d="M95.3,66.6c0-1,0-1.8,0-2.7c0.9,0,1.7,0,2.7,0c0,0.8,0,1.7,0,2.7C97.2,66.6,96.3,66.6,95.3,66.6z"/>
		<path d="M89.4,64c1,0,1.8,0,2.7,0c0,0.9,0,1.7,0,2.7c-0.9,0-1.7,0-2.7,0C89.4,65.8,89.4,65,89.4,64z"/>
		<path d="M86.1,66.7c-0.8,0-1.7,0-2.6,0c0-0.9,0-1.7,0-2.7c0.8,0,1.6,0,2.6,0C86.1,64.8,86.1,65.7,86.1,66.7z"/>
		<path d="M77.6,63.9c1,0,1.7,0,2.6,0c0,0.9,0,1.8,0,2.7c-0.9,0-1.7,0-2.6,0C77.6,65.8,77.6,64.9,77.6,63.9z"/>
		<path d="M113,66.6c0-0.9,0-1.7,0-2.6c0.9,0,1.7,0,2.7,0c0,0.8,0,1.6,0,2.6C114.8,66.6,113.9,66.6,113,66.6z"/>
		<path d="M121.7,64c0,0.9,0,1.7,0,2.7c-0.9,0-1.8,0-2.7,0c0-0.9,0-1.7,0-2.7C119.8,64,120.6,64,121.7,64z"/>
		<path d="M127.5,64c0,0.9,0,1.7,0,2.6c-0.9,0-1.7,0-2.7,0c0-0.9,0-1.7,0-2.6C125.7,64,126.5,64,127.5,64z"/>
		<path d="M133.4,64c0,0.9,0,1.8,0,2.7c-0.9,0-1.7,0-2.6,0c0-0.9,0-1.7,0-2.7C131.7,64,132.5,64,133.4,64z"/>
		<path d="M107,66.7c0-1,0-1.7,0-2.7c0.9,0,1.8,0,2.8,0c0,0.8,0,1.7,0,2.7C108.9,66.7,108.1,66.7,107,66.7z"/>
		<path d="M101.2,63.9c0.9,0,1.7,0,2.7,0c0,0.9,0,1.7,0,2.7c-0.9,0-1.7,0-2.7,0C101.2,65.8,101.2,65,101.2,63.9z"/>
		<path d="M80.5,72.5c0-0.9,0-1.7,0-2.6c0.9,0,1.7,0,2.6,0c0,0.9,0,1.7,0,2.6C82.4,72.5,81.5,72.5,80.5,72.5z"/>
		<path d="M89.2,69.9c0,0.9,0,1.7,0,2.6c-0.9,0-1.8,0-2.7,0c0-0.8,0-1.7,0-2.6C87.3,69.9,88.2,69.9,89.2,69.9z"/>
		<path d="M95.1,72.6c-0.9,0-1.7,0-2.7,0c0-0.9,0-1.7,0-2.7c0.9,0,1.7,0,2.7,0C95.1,70.8,95.1,71.6,95.1,72.6z"/>
		<path d="M101,72.6c-0.9,0-1.8,0-2.7,0c0-0.9,0-1.7,0-2.7c0.9,0,1.7,0,2.7,0C101,70.8,101,71.6,101,72.6z"/>
		<path d="M121.9,69.9c0.9,0,1.7,0,2.6,0c0,0.9,0,1.8,0,2.7c-0.9,0-1.7,0-2.6,0C121.9,71.7,121.9,70.9,121.9,69.9z"/>
		<path d="M118.6,72.6c-0.9,0-1.7,0-2.6,0c0-0.9,0-1.7,0-2.7c0.8,0,1.6-0.1,2.6-0.1C118.6,70.7,118.6,71.5,118.6,72.6z"/>
		<path d="M106.9,69.9c0,0.9,0,1.7,0,2.7c-0.9,0-1.7,0-2.7,0c0-0.9,0-1.7,0-2.7C105,69.9,105.8,69.9,106.9,69.9z"/>
		<path d="M110,72.5c0-0.9,0-1.7,0-2.6c0.9,0,1.8,0,2.7,0c0,0.9,0,1.7,0,2.6C112,72.5,111.1,72.5,110,72.5z"/>
		<path d="M130.5,69.9c0,0.9,0,1.7,0,2.7c-0.9,0-1.7,0-2.6,0c0-0.9,0-1.7,0-2.7C128.8,69.9,129.5,69.9,130.5,69.9z"/>
		<path d="M133.8,72.6c0-0.9,0-1.8,0-2.7c0.9,0,1.6,0,2.5,0c0,0.8,0,1.7,0,2.7C135.6,72.6,134.8,72.6,133.8,72.6z"/>
		<path d="M136.4,81.8c0,0.9,0,1.7,0,2.7c-0.9,0-1.7,0-2.6,0c0-0.9,0-1.7,0-2.7C134.6,81.8,135.4,81.8,136.4,81.8z"/>
		<path d="M127.9,81.7c0.9,0,1.6,0,2.5,0c0,0.9,0,1.7,0,2.7c-0.8,0-1.6,0-2.5,0C127.9,83.5,127.9,82.7,127.9,81.7z"/>
		<path d="M74.3,66.7c-0.8,0-1.6,0-2.5,0c0-0.8,0-1.7,0-2.7c0.8,0,1.6,0,2.5,0C74.3,64.9,74.3,65.7,74.3,66.7z"/>
		<path d="M68.7,72.7c0-1.1,0-1.9,0-2.8c0.9,0,1.7,0,2.6,0c0,0.9,0,1.7,0,2.7C70.5,72.6,69.7,72.7,68.7,72.7z"/>
		<path d="M77.2,72.6c-0.9,0-1.6,0-2.5,0c0-0.9,0-1.7,0-2.7c0.8,0,1.6,0,2.5,0C77.2,70.8,77.2,71.6,77.2,72.6z"/>
		<path d="M71.4,81.7c0,1,0,1.7,0,2.6c-0.9,0-1.7,0-2.6,0c0-0.8,0-1.7,0-2.6C69.6,81.7,70.4,81.7,71.4,81.7z"/>
		<path d="M74.3,78.5c-0.9,0-1.6,0-2.5,0c0-0.9,0-1.7,0-2.7c0.8,0,1.6,0,2.5,0C74.3,76.7,74.3,77.5,74.3,78.5z"/>
		<path d="M133.4,78.5c-0.9,0-1.6,0-2.5,0c0-0.9,0-1.7,0-2.7c0.8,0,1.6,0,2.5,0C133.4,76.6,133.4,77.5,133.4,78.5z"/>
		<path d="M127.5,75.7c0,1.1,0,1.9,0,2.8c-0.9,0-1.7,0-2.6,0c0-0.8,0-1.6,0-2.7C125.7,75.8,126.5,75.7,127.5,75.7z"/>
		<path d="M80.3,75.8c0,1,0,1.7,0,2.7c-0.9,0-1.7,0.1-2.6,0.1c0-1,0-1.8,0-2.8C78.5,75.8,79.3,75.8,80.3,75.8z"/>
		<path d="M136.8,63.9c0.9,0,1.6,0,2.5,0c0,0.9,0,1.8,0,2.8c-0.8,0-1.6,0-2.5,0C136.8,65.8,136.8,65,136.8,63.9z"/>
		<path d="M136.8,78.5c0-0.9,0-1.7,0-2.7c0.8,0,1.6,0,2.5,0c0,0.8,0,1.7,0,2.7C138.5,78.5,137.7,78.5,136.8,78.5z"/>
		<path d="M68.4,75.8c0,0.9,0,1.7,0,2.7c-0.8,0-1.6,0-2.5,0c0-0.9,0-1.7,0-2.7C66.6,75.8,67.4,75.8,68.4,75.8z"/>
		<path d="M65.8,66.7c0-1,0-1.8,0-2.7c0.9,0,1.6,0,2.5,0c0,0.9,0,1.8,0,2.7C67.5,66.7,66.7,66.7,65.8,66.7z"/>
		<path d="M139.8,81.7c1,0,1.7,0,2.5,0c0,0.9,0,1.7,0,2.7c-0.8,0-1.6,0-2.5,0C139.8,83.5,139.8,82.7,139.8,81.7z"/>
		<path d="M62.8,72.5c0-0.9,0-1.7,0-2.6c0.9,0,1.6,0,2.5,0c0,0.9,0,1.7,0,2.6C64.6,72.5,63.8,72.5,62.8,72.5z"/>
		<path d="M62.8,81.7c0.9,0,1.6,0,2.5,0c0,0.9,0,1.7,0,2.7c-0.8,0-1.6,0-2.5,0C62.8,83.5,62.8,82.7,62.8,81.7z"/>
		<path d="M139.8,69.9c0.9,0,1.7,0,2.5,0c0,0.9,0,1.7,0,2.7c-0.8,0-1.6,0-2.5,0C139.8,71.7,139.8,70.9,139.8,69.9z"/>
	</g>
</g>
</svg>
